<?xml version="1.0" encoding="utf-8"?><svg viewBox="0 0 80 58" xmlns="http://www.w3.org/2000/svg" xmlns:xlink="http://www.w3.org/1999/xlink"><style>:root>svg{display:none}:root>svg:target{display:block}</style><svg fill="none" viewBox="0 0 14 8" id="accodrion-arrow" xmlns="http://www.w3.org/2000/svg"><path fill-rule="evenodd" clip-rule="evenodd" d="M13.76.24a.82.82 0 00-1.159 0L7 5.841 1.399.241A.82.82 0 00.24 1.398l6.168 6.168a.83.83 0 00.38.225.82.82 0 00.808-.229L13.76 1.4a.82.82 0 000-1.159z" fill="#BE946F"/></svg><svg fill="none" viewBox="0 0 8 14" id="arrow-black" xmlns="http://www.w3.org/2000/svg"><path d="M7 13L1 7l6-6" stroke="#000" stroke-width="2" stroke-linecap="round" stroke-linejoin="round"/></svg><svg fill="none" viewBox="0 0 24 24" id="arrow-left" xmlns="http://www.w3.org/2000/svg"><path d="M19 12H5M12 19l-7-7 7-7" stroke="#fff" stroke-width="2" stroke-linecap="round" stroke-linejoin="round"/></svg><svg fill="none" viewBox="0 0 8 14" id="back-arrow" xmlns="http://www.w3.org/2000/svg"><path d="M7 13L1 7l6-6" stroke="#fff" stroke-width="2" stroke-linecap="round" stroke-linejoin="round"/></svg><svg fill="none" viewBox="0 0 24 24" id="camera" xmlns="http://www.w3.org/2000/svg"><path d="M23 19a2 2 0 01-2 2H3a2 2 0 01-2-2V8a2 2 0 012-2h4l2-3h6l2 3h4a2 2 0 012 2v11z" stroke="#000" stroke-width="2" stroke-linecap="round" stroke-linejoin="round"/><path d="M12 17a4 4 0 100-8 4 4 0 000 8z" stroke="#000" stroke-width="2" stroke-linecap="round" stroke-linejoin="round"/></svg><svg fill="none" viewBox="0 0 24 24" id="catalog-map" xmlns="http://www.w3.org/2000/svg"><path d="M18.364 17.364L12 23.728l-6.364-6.364a9 9 0 1112.728 0zM12 15a4 4 0 100-8 4 4 0 000 8zm0-2a2 2 0 110-4 2 2 0 010 4z" fill="#BE9570"/></svg><svg fill="none" viewBox="0 0 14 14" id="check" xmlns="http://www.w3.org/2000/svg"><path d="M11.667 3.5L5.25 9.917 2.333 7" stroke="#fff" stroke-width="2" stroke-linecap="round" stroke-linejoin="round"/></svg><svg fill="none" viewBox="0 0 37 37" id="choice" xmlns="http://www.w3.org/2000/svg"><g clip-path="url(#ahclip0)" fill="#47DFB1"><path d="M36.606 15.036L19.068 2.195a.961.961 0 00-1.136 0L.393 15.035a.961.961 0 101.136 1.552L18.5 4.162l16.97 12.425a.96.96 0 101.136-1.551z"/><path d="M31.96 16.805c-.532 0-.962.43-.962.961v15.302h-7.69v-8.352a4.813 4.813 0 00-4.808-4.808 4.813 4.813 0 00-4.807 4.807v8.354h-7.69V17.765a.961.961 0 00-1.923 0V34.03c0 .53.43.961.96.961h9.614a.96.96 0 00.962-.961v-9.314A2.888 2.888 0 0118.5 21.83a2.888 2.888 0 012.884 2.885v9.314a.96.96 0 00.961.961h9.614c.531 0 .962-.43.962-.961V17.766a.961.961 0 00-.962-.961z"/></g><defs><clipPath id="ahclip0"><path fill="#fff" d="M0 0h37v37H0z"/></clipPath></defs></svg><svg fill="none" viewBox="0 0 37 37" id="comfort" xmlns="http://www.w3.org/2000/svg"><path d="M24.207 0c-6.895 0-12.505 5.61-12.505 12.505 0 1.534.272 3.023.81 4.438L.554 28.9a.912.912 0 00-.267.644v6.544c0 .503.408.911.912.911H6.59a.911.911 0 00.644-.266l1.817-1.815a.912.912 0 00.267-.645v-2.231h2.229a.911.911 0 00.911-.911v-.894h.893a.911.911 0 00.912-.91v-1.962h1.96a.912.912 0 00.645-.267l2.9-2.9c1.415.54 2.904.812 4.438.812 6.895 0 12.505-5.61 12.505-12.506C36.712 5.61 31.102 0 24.207 0zm0 23.188c-1.492 0-2.934-.301-4.288-.895a.911.911 0 00-1.003.182l-.008.008-3.06 3.06h-2.495a.911.911 0 00-.912.912v1.96h-.893a.911.911 0 00-.911.912v.893H8.408a.911.911 0 00-.911.912v2.764l-1.283 1.281H2.11V33.89L13.25 22.75a.82.82 0 10-1.16-1.16l-9.98 9.98v-1.647l12.119-12.12.007-.007a.911.911 0 00.183-1.003 10.608 10.608 0 01-.895-4.287c0-5.891 4.793-10.683 10.683-10.683S34.89 6.615 34.89 12.506c0 5.89-4.793 10.682-10.683 10.682z" fill="#47DFB1"/><path d="M28.013 5.286a3.417 3.417 0 00-3.414 3.413 3.417 3.417 0 003.414 3.414 3.417 3.417 0 003.413-3.414 3.417 3.417 0 00-3.413-3.413zm0 5.004c-.877 0-1.591-.713-1.591-1.59 0-.878.714-1.592 1.59-1.592.878 0 1.592.714 1.592 1.591 0 .878-.714 1.591-1.591 1.591z" fill="#47DFB1"/></svg><svg fill="none" viewBox="0 0 24 24" id="dollar-sign" xmlns="http://www.w3.org/2000/svg"><path d="M12 1v22M17 5H9.5a3.5 3.5 0 100 7h5a3.5 3.5 0 110 7H6" stroke="#000" stroke-width="2" stroke-linecap="round" stroke-linejoin="round"/></svg><svg fill="none" viewBox="0 0 24 24" id="download" xmlns="http://www.w3.org/2000/svg"><path d="M21 15v4a2 2 0 01-2 2H5a2 2 0 01-2-2v-4M7 10l5 5 5-5M12 15V3" stroke="#fff" stroke-width="2" stroke-linecap="round" stroke-linejoin="round"/></svg><svg fill="none" viewBox="0 0 37 37" id="economy" xmlns="http://www.w3.org/2000/svg"><path d="M18.5 0C8.3 0 0 8.3 0 18.5S8.3 37 18.5 37 37 28.7 37 18.5 28.7 0 18.5 0zm0 34.688c-8.926 0-16.187-7.262-16.187-16.188 0-8.926 7.261-16.187 16.187-16.187 8.926 0 16.188 7.261 16.188 16.187 0 8.926-7.262 16.188-16.188 16.188z" fill="#47DFB1"/><path d="M19.656 6.938h-2.312v12.04l7.276 7.277 1.635-1.635-6.599-6.599V6.937z" fill="#47DFB1"/></svg><svg fill="none" viewBox="0 0 44 44" id="f_facebook" xmlns="http://www.w3.org/2000/svg"><path d="M27 12h-3a5 5 0 00-5 5v3h-3v4h3v8h4v-8h3l1-4h-4v-3a1 1 0 011-1h3v-4z" stroke="#BE946F" stroke-width="1.5" stroke-linecap="round" stroke-linejoin="round"/><circle cx="22" cy="22" r="21.5" stroke="#BE946F"/></svg><svg fill="none" viewBox="0 0 44 44" id="f_instagram" xmlns="http://www.w3.org/2000/svg"><path d="M27 12H17a5 5 0 00-5 5v10a5 5 0 005 5h10a5 5 0 005-5V17a5 5 0 00-5-5z" stroke="#BE946F" stroke-width="1.5" stroke-linecap="round" stroke-linejoin="round"/><path d="M26 21.37a4 4 0 11-7.913 1.174A4 4 0 0126 21.37zM27.5 16.5h.01" stroke="#BE946F" stroke-width="1.5" stroke-linecap="round" stroke-linejoin="round"/><circle cx="22" cy="22" r="21.5" stroke="#BE946F"/></svg><svg fill="none" viewBox="0 0 44 44" id="f_vk" xmlns="http://www.w3.org/2000/svg"><path clip-rule="evenodd" d="M33.45 16.016c.166-.586 0-1.016-.795-1.016H30.03c-.668 0-.976.372-1.143.781 0 0-1.335 3.425-3.226 5.65-.612.644-.89.85-1.224.85-.167 0-.418-.206-.418-.791v-5.474c0-.703-.184-1.016-.74-1.016h-4.127a.648.648 0 00-.668.635c0 .666.946.82 1.043 2.693v4.07c0 .892-.153 1.053-.487 1.053-.89 0-3.055-3.44-4.34-7.377-.25-.765-.503-1.074-1.174-1.074H10.9c-.75 0-.9.372-.9.781 0 .732.89 4.362 4.145 9.163C16.315 28.223 19.37 30 22.153 30c1.669 0 1.875-.395 1.875-1.075v-2.478c0-.79.158-.947.687-.947.39 0 1.057.205 2.615 1.786C29.11 29.159 29.403 30 30.405 30h2.625c.75 0 1.126-.395.91-1.174-.238-.776-1.087-1.903-2.215-3.238-.612-.761-1.53-1.58-1.809-1.99-.389-.527-.278-.762 0-1.23 0 0 3.2-4.742 3.533-6.352z" stroke="#BE946F"/><circle cx="22" cy="22" r="21.5" stroke="#BE946F"/></svg><svg fill="none" viewBox="0 0 44 44" id="f_youtube" xmlns="http://www.w3.org/2000/svg"><g clip-path="url(#apclip0_112_724)" stroke="#BE946F" stroke-width="1.5" stroke-linecap="round" stroke-linejoin="round"><path d="M33.278 16.287a3.53 3.53 0 00-2.5-2.595c-.502-.123-1.316-.204-2.197-.263-.901-.06-1.933-.1-2.906-.126a151.053 151.053 0 00-3.596-.053H22h0v0h0-.08a116.937 116.937 0 00-1.03.007c-.675.008-1.593.022-2.567.05-.973.03-2.006.073-2.908.139-.881.064-1.701.154-2.209.29h0l-.01.002a3.53 3.53 0 00-2.474 2.589 29.741 29.741 0 00-.472 5.422c-.011 1.832.147 3.661.472 5.464.004.024.01.049.017.072a3.529 3.529 0 002.463 2.438l.004.002c.508.135 1.328.225 2.209.289.902.066 1.935.11 2.908.138a138.849 138.849 0 003.598.058H22v-.75.75h.079a116.983 116.983 0 001.031-.007c.675-.008 1.594-.022 2.567-.05a70.275 70.275 0 002.908-.139c.881-.064 1.701-.154 2.209-.29h0l.01-.002a3.53 3.53 0 002.474-2.589c.32-1.776.478-3.577.472-5.382a29.749 29.749 0 00-.472-5.464z"/><path d="M19.75 25.02l5.75-3.27-5.75-3.27v6.54z"/></g><circle cx="22" cy="22" r="21.5" stroke="#BE946F"/><defs><clipPath id="apclip0_112_724"><path fill="#fff" transform="translate(10 10)" d="M0 0h24v24H0z"/></clipPath></defs></svg><svg fill="none" viewBox="0 0 13 22" id="facebook-white" xmlns="http://www.w3.org/2000/svg"><path d="M12 1H9a5 5 0 00-5 5v3H1v4h3v8h4v-8h3l1-4H8V6a1 1 0 011-1h3V1z" stroke="#fff" stroke-width="1.5" stroke-linecap="round" stroke-linejoin="round"/></svg><svg fill="none" viewBox="0 0 24 24" id="file-text" xmlns="http://www.w3.org/2000/svg"><path d="M14 2H6a2 2 0 00-2 2v16a2 2 0 002 2h12a2 2 0 002-2V8l-6-6z" stroke="#000" stroke-width="2" stroke-linecap="round" stroke-linejoin="round"/><path d="M14 2v6h6M16 13H8M16 17H8M10 9H8" stroke="#000" stroke-width="2" stroke-linecap="round" stroke-linejoin="round"/></svg><svg fill="none" viewBox="0 0 9 16" id="gallery-arrow" xmlns="http://www.w3.org/2000/svg"><path d="M8 15L1 8l7-7" stroke="#fff" stroke-width="2" stroke-linecap="round" stroke-linejoin="round"/></svg><svg fill="none" viewBox="0 0 9 16" id="good-back" xmlns="http://www.w3.org/2000/svg"><path d="M8 15L1 8l7-7" stroke="#fff" stroke-width="2" stroke-linecap="round" stroke-linejoin="round"/></svg><svg fill="none" viewBox="0 0 22 22" id="good-gallery" xmlns="http://www.w3.org/2000/svg"><path d="M11.41 16.742h0l2.873 4.182h0c.097.141.257.226.428.226h5.92a.519.519 0 00.519-.52V1.37v0a.52.52 0 00-.52-.519H1.37a.519.519 0 00-.519.519v19.262c0 .287.232.519.519.519h7.365a.519.519 0 100-1.038H1.888V14.71h3.627a.519.519 0 100-1.038H1.888V1.888h9.085v5.674a.519.519 0 101.038 0V1.888h8.1v8.818H8.352a.519.519 0 000 1.038h11.76v8.368h-5.127l-2.718-3.958s0 0 0 0a.519.519 0 00-.722-.134l.085.124-.085-.124a.519.519 0 00-.134.722z" fill="#fff" stroke="#fff" stroke-width=".3"/></svg><svg fill="none" viewBox="0 0 32 32" id="good-presentation1" xmlns="http://www.w3.org/2000/svg"><g opacity=".8" clip-path="url(#avclip0_112_3814)" fill="#BE9570" stroke="#BE9570" stroke-width=".8"><path d="M25.585 4.545h-6.183V3.403a.48.48 0 00-.48-.48h-5.914a.479.479 0 00-.479.48v1.142H6.346a.479.479 0 00-.479.48V28.54c0 .264.215.479.48.479h19.238a.48.48 0 00.48-.48V5.025a.48.48 0 00-.48-.479zm-12.097-.663h4.956v1.933h-4.956V3.882zM25.106 28.06H6.826V5.505h5.703v.79c0 .265.215.479.48.479h5.914a.48.48 0 00.479-.48v-.79h5.704v22.558z"/><path d="M10.409 11.931H8.556a.479.479 0 100 .959h1.851a.479.479 0 100-.959zM12.21 12.41c0 .265.215.48.48.48h10.686a.48.48 0 100-.959H12.69a.48.48 0 00-.48.48zM10.409 16.209H8.556a.48.48 0 100 .958h1.851a.479.479 0 100-.958zM23.376 16.209H12.69a.48.48 0 000 .958h10.686a.48.48 0 000-.958zM10.409 20.484H8.556a.48.48 0 100 .958h1.851a.479.479 0 100-.958zM23.376 20.484H12.69a.48.48 0 000 .958h10.686a.48.48 0 000-.958z"/></g><defs><clipPath id="avclip0_112_3814"><path fill="#fff" d="M0 0h32v32H0z"/></clipPath></defs></svg><svg fill="none" viewBox="0 0 24 30" id="good-presentation2" xmlns="http://www.w3.org/2000/svg"><path d="M23.223 4.976a.655.655 0 00-.016-.107.5.5 0 00-.089-.187.574.574 0 00-.196-.164.553.553 0 00-.152-.047l-.027-.006c-4.258-.43-7.588-1.305-11.027-4.332a.532.532 0 00-.756.053c-.013.014-.022.03-.033.046C7.468 3.25 4.58 4.052.483 4.465a.54.54 0 00-.483.54v12.687c0 .048.006.096.019.142 2.174 8.102 10.94 11.952 11.312 12.112a.531.531 0 00.417 0c.377-.159 9.243-4.008 11.417-12.112a.553.553 0 00.016-.087l.042-.419a.556.556 0 00.003-.055V5.004c0-.01-.002-.019-.003-.028zm-1.104 12.616c-1.876 6.898-9.238 10.63-10.578 11.26-1.328-.63-8.582-4.355-10.47-11.233V5.49c3.884-.434 6.897-1.334 10.31-4.23 3.383 2.836 6.787 3.782 10.773 4.229v11.755l-.035.347z" fill="#000"/><path d="M16.615 11.685h-.514c-.283-2.399-2.322-4.267-4.791-4.267-2.47 0-4.509 1.868-4.791 4.267h-.623a.539.539 0 00-.536.542v7.946c0 .299.24.541.536.541h10.72a.539.539 0 00.536-.541v-7.946a.54.54 0 00-.537-.542zM11.31 8.502a3.758 3.758 0 013.708 3.183H7.601a3.758 3.758 0 013.708-3.183zm4.77 4.267v6.862H6.432v-6.862h9.647z" fill="#000"/></svg><svg fill="none" viewBox="0 0 36 36" id="good-presentation3" xmlns="http://www.w3.org/2000/svg"><path d="M18.24 26.851H6.95v-16.69l9.585-8.338 9.355 7.995v10.48a.537.537 0 101.075 0v-9.561l3.496 2.989a.536.536 0 10.698-.818L16.881.705a.537.537 0 00-.702.003L2.2 12.868a.537.537 0 10.706.81l2.97-2.583v16.293c0 .296.24.537.538.537H18.24a.537.537 0 100-1.074z" fill="#000"/><path d="M33.122 32.523L20.84 18.577c.15-1.465-.239-2.65-1.145-3.43-1.102-.95-2.116-.77-3.649-.497-.2.035-.413.073-.64.111-.58.097-1.067-.473-1.597-1.171-.375-.495-.7-.922-1.207-.788-.494.13-.609.693-.678 1.21-.305 2.291-.159 5.474 1.257 6.905 1.158 1.175 2.758 1.34 3.564 1.34.1 0 .181-.003.254-.006L31.077 34.57c.436.43.976.677 1.484.676h.012c.35-.002.666-.129.89-.357.565-.576.415-1.612-.34-2.365zM12.975 14.268c.511.673 1.359 1.763 2.607 1.553.231-.038.448-.077.652-.113 1.518-.27 2.079-.334 2.76.253.643.554.9 1.412.775 2.544l-2.815 2.672c-.496.021-2.01-.003-3.009-1.014-1.045-1.057-1.234-3.771-.97-5.895zm7.273 5.263l1.117 1.268-2.05 2.05-1.334-1.166 2.267-2.152zm12.448 14.605c-.022.022-.074.033-.134.035-.167 0-.456-.096-.754-.389L20.125 23.56l1.952-1.951 10.251 11.64.027.027c.368.362.43.77.34.86z" fill="#000"/></svg><svg fill="none" viewBox="0 0 8 9" id="handler" xmlns="http://www.w3.org/2000/svg"><path stroke="#000" stroke-linecap="round" d="M7.5.5v7.211M4 .5v7.211M.5.5v7.211"/></svg><svg fill="none" viewBox="0 0 24 21" id="history" xmlns="http://www.w3.org/2000/svg"><path d="M2.943 17.487a.346.346 0 100 .692h17.808a.346.346 0 100-.692h-1.932V7.27h1.932a.346.346 0 100-.692H4.926a.342.342 0 00-.096-.015.34.34 0 00-.097.015h-1.79a.346.346 0 100 .692h1.542v10.217H2.943zm6.92 0V7.27h3.825v10.217H9.863zm8.264 0H14.38V7.27h3.747v10.217zM5.174 7.27h3.997v10.217H5.174V7.27zM22.85 20.306H.844a.346.346 0 100 .692H22.85a.346.346 0 100-.692z" fill="#000"/><path d="M23.149 6.575L12.146.288a.347.347 0 00-.343 0L.728 6.575a.346.346 0 00.342.602L11.974.987l10.831 6.19a.346.346 0 00.344-.602z" fill="#000"/></svg><svg fill="none" viewBox="0 0 36 36" id="history-home" xmlns="http://www.w3.org/2000/svg"><path d="M4.415 27.73a.519.519 0 100 1.039h26.711a.519.519 0 100-1.039H28.23V12.405h2.897a.519.519 0 100-1.038H7.39a.513.513 0 00-.145-.023.51.51 0 00-.146.023H4.415a.519.519 0 100 1.038h2.313V27.73H4.415zm10.38 0V12.405h5.737V27.73h-5.737zm12.396 0h-5.62V12.405h5.62V27.73zM7.76 12.405h5.996V27.73H7.762V12.405zM34.275 31.959H1.267a.519.519 0 100 1.038h33.008a.519.519 0 100-1.038z" fill="#000"/><path d="M34.723 11.363l-16.504-9.43a.52.52 0 00-.514-.001l-16.613 9.43a.52.52 0 00.513.903L17.96 2.981l16.248 9.283a.52.52 0 00.515-.901z" fill="#000"/></svg><svg fill="none" viewBox="0 0 24 24" id="home" xmlns="http://www.w3.org/2000/svg"><path d="M3 9l9-7 9 7v11a2 2 0 01-2 2H5a2 2 0 01-2-2V9z" stroke="#000" stroke-width="2" stroke-linecap="round" stroke-linejoin="round"/><path d="M9 22V12h6v10" stroke="#000" stroke-width="2" stroke-linecap="round" stroke-linejoin="round"/></svg><svg fill="none" viewBox="0 0 51 51" id="instagram" xmlns="http://www.w3.org/2000/svg"><path d="M36.125 4.25h-21.25C9.007 4.25 4.25 9.007 4.25 14.875v21.25c0 5.868 4.757 10.625 10.625 10.625h21.25c5.868 0 10.625-4.757 10.625-10.625v-21.25c0-5.868-4.757-10.625-10.625-10.625z" stroke="#fff" stroke-width="1.5" stroke-linecap="round" stroke-linejoin="round"/><path d="M34 24.161a8.5 8.5 0 11-16.818 2.494A8.5 8.5 0 0134 24.16zM37.188 13.813h.022" stroke="#fff" stroke-width="1.5" stroke-linecap="round" stroke-linejoin="round"/></svg><svg fill="none" viewBox="0 0 24 24" id="instagram-button" xmlns="http://www.w3.org/2000/svg"><path d="M17 2H7a5 5 0 00-5 5v10a5 5 0 005 5h10a5 5 0 005-5V7a5 5 0 00-5-5z" stroke="#fff" stroke-width="1.5" stroke-linecap="round" stroke-linejoin="round"/><path d="M16 11.37a4 4 0 11-7.913 1.174A4 4 0 0116 11.37zM17.5 6.5h.01" stroke="#fff" stroke-width="1.5" stroke-linecap="round" stroke-linejoin="round"/></svg><svg fill="none" viewBox="0 0 24 24" id="instagram-white" xmlns="http://www.w3.org/2000/svg"><path d="M17 2H7a5 5 0 00-5 5v10a5 5 0 005 5h10a5 5 0 005-5V7a5 5 0 00-5-5z" stroke="#fff" stroke-width="1.5" stroke-linecap="round" stroke-linejoin="round"/><path d="M16 11.37a4 4 0 11-7.913 1.173A4 4 0 0116 11.37zM17.5 6.5h.01" stroke="#fff" stroke-width="1.5" stroke-linecap="round" stroke-linejoin="round"/></svg><svg fill="none" viewBox="0 0 80 50" id="logo" xmlns="http://www.w3.org/2000/svg"><path d="M0 8a8 8 0 018-8h64a8 8 0 018 8v33.167a8 8 0 01-8 8H8a8 8 0 01-8-8V8z" fill="#F50"/><path d="M13.958 33.74h1.395v5.433H13.88v-2.888l-1.196 1.785h-.845l-1.196-1.793v2.896H9.167v-5.434h1.395l1.698 2.546 1.698-2.546zM21.43 39.173h-1.475v-2.22c0-.368.01-.665.032-.893l-2.184 3.113h-1.396v-5.434h1.475v2.22c0 .373-.01.673-.032.9l2.185-3.12h1.395v5.434zM22.48 33.74h2.208c1.621 0 2.432.62 2.432 1.862 0 1.232-.81 1.853-2.432 1.863h-.733v1.708H22.48v-5.434zm2.28 2.483c.563 0 .845-.207.845-.62 0-.415-.282-.622-.845-.622h-.805v1.242h.805zM30.954 39.173h-1.475v-5.434h1.475v2.057h.701l1.268-2.057h1.634l-1.754 2.647 1.834 2.787h-1.634l-1.355-2.096h-.694v2.096zM35.108 33.74h2.52c.626 0 1.107.113 1.442.34.34.229.51.573.51 1.033 0 .595-.276.989-.829 1.18.702.202 1.053.65 1.053 1.343 0 .295-.067.548-.2.76a1.276 1.276 0 01-.55.474 2.902 2.902 0 01-.717.233c-.245.046-.513.07-.806.07h-2.423v-5.434zm2.471 4.307c.495 0 .742-.189.742-.566 0-.378-.247-.567-.742-.567h-1.004v1.133h1.004zm.359-2.305a.46.46 0 00.167-.373.439.439 0 00-.167-.364c-.106-.094-.255-.14-.446-.14h-.91v1.001l.91.008c.19 0 .34-.044.446-.132zM41.36 39.173h-1.515l2.192-5.434h1.595l2.192 5.434h-1.515l-.319-.854h-2.312l-.319.854zm1.33-3.586l-.573 1.567h1.435l-.574-1.567a3.112 3.112 0 01-.144-.552c-.032.192-.08.376-.143.552zM46.358 33.74h2.208c1.621 0 2.432.62 2.432 1.862 0 1.232-.81 1.853-2.432 1.863h-.733v1.708h-1.475v-5.434zm2.28 2.483c.563 0 .845-.207.845-.62 0-.415-.282-.622-.845-.622h-.805v1.242h.805zM51.276 33.74H55.9v1.28h-1.57v4.153h-1.475V35.02h-1.579v-1.28zM61.556 39.173H60.08v-2.22c0-.368.01-.665.032-.893l-2.185 3.113h-1.395v-5.434h1.475v2.22c0 .373-.01.673-.032.9l2.185-3.12h1.395v5.434zM62.606 33.74h2.208c1.621 0 2.432.62 2.432 1.862 0 1.232-.81 1.853-2.432 1.863h-.733v1.708h-1.475v-5.434zm2.28 2.483c.563 0 .845-.207.845-.62 0-.415-.282-.622-.845-.622h-.805v1.242h.805zM13.234 17.824h1.6c.817 0 1.479-.644 1.479-1.439v-2.728c0-.795-.662-1.44-1.479-1.44h-1.6c-.816 0-1.479.645-1.479 1.44v2.728c0 .795.662 1.44 1.48 1.44zM33.244 17.824h1.6c.816 0 1.479-.644 1.479-1.439v-2.728c0-.795-.663-1.44-1.48-1.44h-1.599c-.817 0-1.479.645-1.479 1.44v2.728c0 .795.662 1.44 1.479 1.44zM59.19 16.385v-2.728c0-.795-.663-1.44-1.479-1.44h-1.6c-.817 0-1.478.645-1.478 1.44v2.728c0 .795.661 1.44 1.478 1.44h1.6c.816 0 1.478-.645 1.478-1.44zM64.555 21.38l3.776-3.677a1.634 1.634 0 000-2.35l-1.59-1.548a1.72 1.72 0 00-1.207-.484 1.72 1.72 0 00-1.206.484L59.43 18.57c-.03.026-.06.053-.089.082L57.751 20.2c-.225.219-.378.49-.45.784l-.004.018c-.004.016-.009.033-.011.05-.11.528.045 1.097.464 1.505l1.591 1.548c.032.032.066.062.1.09l4.887 4.757c.32.312.749.485 1.206.485a1.72 1.72 0 001.206-.485l1.59-1.549a1.633 1.633 0 000-2.35l-3.775-3.675z" fill="#fff"/><path d="M43.881 13.805a1.718 1.718 0 00-1.206-.484H42.666c-.457 0-.885.171-1.206.484l-8.778 8.546-8.778-8.546a1.717 1.717 0 00-1.206-.484h-.007c-.457 0-.886.171-1.207.484L9.928 25.055c-.322.314-.498.73-.498 1.175 0 .444.176.861.498 1.174l1.59 1.548c.322.313.75.485 1.207.485.458 0 .886-.172 1.207-.485l8.762-8.53 8.762 8.53c.32.313.75.485 1.207.485h.038a1.72 1.72 0 001.208-.485l8.761-8.53 8.763 8.53c.32.313.748.485 1.206.485.457 0 .886-.172 1.206-.485l1.59-1.548c.322-.312.498-.73.498-1.174 0-.445-.176-.862-.497-1.175L43.88 13.805zM71.496 9.576c-.913 0-1.656.723-1.656 1.612 0 .888.743 1.612 1.656 1.612.913 0 1.655-.724 1.655-1.612 0-.889-.742-1.612-1.655-1.612zm0 3.634c-1.145 0-2.077-.907-2.077-2.022 0-1.115.932-2.022 2.077-2.022 1.146 0 2.077.907 2.077 2.022 0 1.115-.931 2.022-2.077 2.022z" fill="#fff"/><path d="M71.146 11.4v.801h-.561v-2.116h.856c.287 0 .496.046.629.141.134.092.2.24.2.443 0 .14-.034.255-.103.345a.605.605 0 01-.315.198.428.428 0 01.207.117c.061.059.122.149.184.273l.305.6h-.597l-.265-.526a.56.56 0 00-.163-.217.376.376 0 00-.219-.059h-.158zm.236-.375c.116 0 .2-.023.252-.066.05-.04.078-.111.078-.21 0-.096-.028-.165-.078-.207-.052-.04-.136-.062-.252-.062h-.236v.545h.236z" fill="#fff"/></svg><svg fill="none" viewBox="0 0 16 9" id="main-arrow" xmlns="http://www.w3.org/2000/svg"><path d="M15 1L8 8 1 1" stroke="#fff" stroke-width="2" stroke-linecap="round" stroke-linejoin="round"/></svg><svg fill="none" viewBox="0 0 24 24" id="map-pin" xmlns="http://www.w3.org/2000/svg"><path d="M21 10c0 7-9 13-9 13s-9-6-9-13a9 9 0 1118 0z" stroke="#000" stroke-width="2" stroke-linecap="round" stroke-linejoin="round"/><path d="M12 13a3 3 0 100-6 3 3 0 000 6z" stroke="#000" stroke-width="2" stroke-linecap="round" stroke-linejoin="round"/></svg><svg fill="none" viewBox="0 0 18 13" id="mark" xmlns="http://www.w3.org/2000/svg"><path d="M17 1L6 12 1 7" stroke="#BE9570" stroke-width="2" stroke-linecap="round" stroke-linejoin="round"/></svg><svg fill="none" viewBox="0 0 24 24" id="menu-company" xmlns="http://www.w3.org/2000/svg"><path d="M12 11a5 5 0 015 5v6h-2v-6a3 3 0 00-2.824-2.995L12 13a3 3 0 00-2.995 2.824L9 16v6H7v-6a5 5 0 015-5zm-6.5 3c.279 0 .55.033.81.094a5.947 5.947 0 00-.301 1.575L6 16v.086a1.494 1.494 0 00-.356-.08L5.5 16a1.5 1.5 0 00-1.493 1.356L4 17.5V22H2v-4.5A3.5 3.5 0 015.5 14zm13 0a3.5 3.5 0 013.5 3.5V22h-2v-4.5a1.5 1.5 0 00-1.356-1.493L18.5 16c-.175 0-.343.03-.5.085V16c0-.666-.108-1.306-.309-1.904A3.42 3.42 0 0118.5 14zm-13-6a2.5 2.5 0 110 5 2.5 2.5 0 010-5zm13 0a2.5 2.5 0 110 5 2.5 2.5 0 010-5zm-13 2a.5.5 0 100 1 .5.5 0 000-1zm13 0a.5.5 0 100 1 .5.5 0 000-1zM12 2a4 4 0 110 8 4 4 0 010-8zm0 2a2 2 0 100 4 2 2 0 000-4z" fill="#fff"/></svg><svg fill="none" viewBox="0 0 24 24" id="menu-services" xmlns="http://www.w3.org/2000/svg"><path d="M7 5V2a1 1 0 011-1h8a1 1 0 011 1v3h4a1 1 0 011 1v14a1 1 0 01-1 1H3a1 1 0 01-1-1V6a1 1 0 011-1h4zm13 8H4v6h16v-6zm0-6H4v4h3V9h2v2h6V9h2v2h3V7zM9 3v2h6V3H9z" fill="#fff"/></svg><svg fill="none" viewBox="0 0 12 12" id="more" xmlns="http://www.w3.org/2000/svg"><path d="M10.864 1.5l-9 9m0-9l9 9" stroke="#937256" stroke-width="2" stroke-linecap="round" stroke-linejoin="round"/></svg><svg fill="none" viewBox="0 0 20 18" id="nedv" xmlns="http://www.w3.org/2000/svg"><path d="M19 18H1a1 1 0 01-1-1V9.487a1 1 0 01.343-.754L4 5.544V1a1 1 0 011-1h14a1 1 0 011 1v16a1 1 0 01-1 1zM7 16h3V9.942L6 6.454 2 9.942V16h3v-4h2v4zm5 0h6V2H6v2.127c.234 0 .469.082.657.247l5 4.359a1 1 0 01.343.754V16zm2-8h2v2h-2V8zm0 4h2v2h-2v-2zm0-8h2v2h-2V4zm-4 0h2v2h-2V4z" fill="#fff"/></svg><svg fill="none" viewBox="0 0 18 12" id="params" xmlns="http://www.w3.org/2000/svg"><g clip-path="url(#bnclip0_112_2171)" stroke="#000" stroke-width="1.5" stroke-linecap="round" stroke-linejoin="round"><path d="M2.25 3H7.5M10.5 3h5.25M2.25 9H9M12 9h3.75M7.5.75v4.5M12 6.75v4.5"/></g><defs><clipPath id="bnclip0_112_2171"><path fill="#fff" transform="rotate(90 9 9)" d="M0 0h12v18H0z"/></clipPath></defs></svg><svg fill="none" viewBox="0 0 18 18" id="phone" xmlns="http://www.w3.org/2000/svg"><path d="M18 13.42v3.536a1 1 0 01-.93.998c-.437.03-.794.046-1.07.046C7.163 18 0 10.837 0 2c0-.276.015-.633.046-1.07A1 1 0 011.044 0H4.58a.5.5 0 01.498.45c.023.23.044.413.064.552A13.9 13.9 0 006.35 5.003c.095.2.033.439-.147.567L4.045 7.112a13.047 13.047 0 006.844 6.844l1.54-2.154a.462.462 0 01.573-.149 13.9 13.9 0 004 1.205c.139.02.322.042.55.064a.5.5 0 01.449.498H18z" fill="#BE946F"/></svg><svg fill="none" viewBox="0 0 16 20" id="play" xmlns="http://www.w3.org/2000/svg"><path d="M.985 1.825C.945.482 3.147-.212 4.436.738L15.17 8.65c.79.582.79 1.525 0 2.107L4.44 18.665c-1.29.95-3.493.255-3.45-1.089l.24-7.61-.246-8.14z" fill="#fff"/></svg><svg fill="none" viewBox="0 0 14 14" id="plus" xmlns="http://www.w3.org/2000/svg"><path fill-rule="evenodd" clip-rule="evenodd" d="M7 14a.7.7 0 00.7-.7V7.7h5.6a.7.7 0 100-1.4H7.7V.7a.7.7 0 10-1.4 0v5.6H.7a.7.7 0 100 1.4h5.6v5.6a.7.7 0 00.7.7z" fill="#BE946F"/></svg><svg fill="none" viewBox="0 0 58 58" id="presentation-1" xmlns="http://www.w3.org/2000/svg"><path d="M16.363 22.982a.867.867 0 001.227 0l1.105-1.106 1.106 1.106a.865.865 0 001.226 0 .867.867 0 000-1.227l-1.105-1.106 1.105-1.106a.867.867 0 00-1.226-1.227l-1.105 1.106-1.106-1.106a.867.867 0 00-1.226 1.227l1.106 1.106-1.106 1.106a.866.866 0 000 1.227z" fill="#BE946F"/><path d="M51.88 20.886c-.141 0-.279.011-.416.02v-9.19a.867.867 0 00-.867-.867H7.543a.867.867 0 00-.867.867v9.228a5.5 5.5 0 00-.759-.058 5.535 5.535 0 00-5.53 5.528c0 2.453 1.665 4.606 3.977 5.286v11.158c0 2.254 1.54 4.088 3.434 4.088.039 0 .078-.005.117-.006.022.002.043.006.066.006H50c1.893 0 3.432-1.834 3.432-4.088V31.7c2.313-.68 3.977-2.833 3.977-5.286a5.536 5.536 0 00-5.53-5.528zm-2.15.436a5.537 5.537 0 00-3.377 5.093c0 .114-.008.323-.018.576-.049 1.224-.059 1.902.018 2.31l-.011 2.629H29.937V12.584h19.792v8.738zM11.5 42.95l-.039-9.287h34.874l-.039 9.291c0 .831.252 1.612.674 2.259H10.827c.422-.65.674-1.43.674-2.263zm-3.09-30.367h19.792V31.93H11.455l-.011-2.628c.076-.409.066-1.086.017-2.31-.01-.253-.018-.462-.018-.576a5.53 5.53 0 00-3.033-4.927v-8.905zM6.096 42.858V31.006a.867.867 0 00-.739-.858c-1.845-.274-3.237-1.88-3.237-3.734a3.8 3.8 0 013.795-3.794c.452 0 .885.084 1.287.23l.01.003a3.797 3.797 0 012.495 3.561c0 .128.01.361.02.645.02.494.065 1.65.017 1.898a.85.85 0 00-.037.252l.059 13.745c0 1.293-1.04 2.258-1.97 2.258-.921 0-1.7-1.078-1.7-2.354zm46.342-12.71a.867.867 0 00-.74.858v11.852c0 1.276-.777 2.354-1.697 2.354-.932 0-1.97-.927-1.97-2.255l.056-13.748a.707.707 0 00-.03-.23c-.056-.27-.01-1.426.01-1.92.012-.283.02-.517.02-.645a3.8 3.8 0 012.651-3.618.853.853 0 00.163-.043c.313-.084.64-.133.978-.133a3.8 3.8 0 013.796 3.794c0 1.855-1.392 3.46-3.237 3.734z" fill="#BE946F"/><path d="M38.364 20.65l-1.105 1.106a.867.867 0 001.226 1.227l1.106-1.106 1.106 1.106a.864.864 0 001.226 0 .867.867 0 000-1.227l-1.106-1.106 1.106-1.106a.867.867 0 00-1.226-1.227l-1.105 1.106-1.106-1.106a.867.867 0 10-1.226 1.227l1.105 1.106z" fill="#BE946F"/></svg><svg fill="none" viewBox="0 0 58 57" id="presentation-2" xmlns="http://www.w3.org/2000/svg"><path d="M51.443 18.338h-8.25L37.435 8.107a.869.869 0 00-.758-.44H21.103a.87.87 0 00-.762.445l-5.655 10.226H6.354a.86.86 0 00-.867.852v29.089c0 .47.388.852.867.852h45.089a.86.86 0 00.867-.852V19.19a.86.86 0 00-.867-.852zm-.867 29.089H7.22V20.042h7.98a.87.87 0 00.762-.445L21.619 9.37h14.547l5.757 10.231c.153.272.443.44.758.44h7.894v27.385z" fill="#BE946F"/><path d="M28.902 16.93c-7.716 0-13.994 6.17-13.994 13.753 0 7.582 6.278 13.75 13.994 13.75 7.71 0 13.982-6.168 13.982-13.75 0-7.583-6.272-13.752-13.982-13.752zm0 25.8c-6.76 0-12.26-5.405-12.26-12.047 0-6.643 5.5-12.048 12.26-12.048 6.755 0 12.249 5.405 12.249 12.048 0 6.642-5.495 12.046-12.249 12.046z" fill="#BE946F"/><path d="M28.897 22.095c-4.817 0-8.736 3.853-8.736 8.588 0 4.734 3.919 8.586 8.736 8.586 4.813 0 8.728-3.852 8.728-8.586 0-4.735-3.915-8.588-8.728-8.588zm0 15.47c-3.861 0-7.002-3.088-7.002-6.882 0-3.796 3.141-6.884 7.002-6.884 3.857 0 6.995 3.088 6.995 6.884 0 3.794-3.138 6.882-6.995 6.882z" fill="#BE946F"/></svg><svg fill="none" viewBox="0 0 58 58" id="presentation-3" xmlns="http://www.w3.org/2000/svg"><path d="M50.594 6.685H15.335c-2.105 0-3.792 1.48-3.84 3.392v7.395a.865.865 0 101.731 0v-7.373c.024-.928.97-1.683 2.11-1.683h35.258c1.164 0 2.111.77 2.111 1.718v28.247c0 .949-.947 1.72-2.111 1.72H15.335c-1.163 0-2.109-.771-2.109-1.72v-4.043a.866.866 0 10-1.731 0v4.043c0 1.903 1.722 3.451 3.84 3.451h16.632v7.465h-10.99a.866.866 0 100 1.731H44.59a.866.866 0 000-1.731H33.698v-7.466h16.896c2.119 0 3.843-1.547 3.843-3.45V10.134c0-1.902-1.724-3.45-3.843-3.45z" fill="#BE946F"/><path d="M27.2 20.81h18.554a.866.866 0 000-1.732H27.199a.865.865 0 100 1.732zM27.2 26.292h18.554a.866.866 0 000-1.732H27.199a.865.865 0 100 1.732zM27.2 32.076h18.554a.866.866 0 000-1.731H27.199a.866.866 0 100 1.731zM12.184 28.12a.864.864 0 00.612-.253L25.303 15.36a.865.865 0 10-1.224-1.223l-11.99 11.99-7.446-5.302a.866.866 0 00-1.003 1.41l8.043 5.726c.15.108.326.16.5.16z" fill="#BE946F"/></svg><svg fill="none" viewBox="0 0 58 58" id="presentation-4" xmlns="http://www.w3.org/2000/svg"><path d="M47.633 9.497H10.368a.87.87 0 00-.87.87v37.265c0 .48.389.87.87.87h14.248a.87.87 0 100-1.74H11.238V36.044h7.152a.87.87 0 100-1.74h-7.152V11.237h17.844v11.11a.87.87 0 101.74 0v-11.11h15.94v17.33H23.876a.87.87 0 100 1.74h22.888v16.455H36.636l-5.3-7.716a.871.871 0 00-1.434.986l5.56 8.093c.161.236.43.377.716.377h11.454c.48 0 .87-.39.87-.87V10.367c0-.48-.39-.87-.87-.87z" fill="#BE946F"/></svg><svg fill="none" viewBox="0 0 43 30" id="quote" xmlns="http://www.w3.org/2000/svg"><path d="M16.134 15.906l.006.005.006.006c1.37 1.28 2.074 3.035 2.074 5.323 0 2.225-.743 4.063-2.227 5.548-1.462 1.416-3.598 2.16-6.489 2.16-2.947 0-5.141-.982-6.662-2.904C1.292 24.037.5 21.488.5 18.36c0-4.484 1.49-8.22 4.464-11.241C7.915 4.122 11.094 1.965 14.5.633l1.164 2.538c-2.514.96-4.761 2.505-6.741 4.624-2.126 2.274-3.273 4.711-3.375 7.305l.947.244c.11-.22.47-.543 1.273-.921.784-.348 1.742-.531 2.888-.531 2.344 0 4.15.686 5.478 2.014zm23.544 0l.006.005.006.006c1.37 1.28 2.074 3.035 2.074 5.323 0 2.225-.744 4.063-2.227 5.548-1.462 1.416-3.598 2.16-6.489 2.16-2.947 0-5.142-.982-6.662-2.904-1.55-2.007-2.342-4.556-2.342-7.684 0-4.484 1.49-8.22 4.464-11.241 2.951-2.997 6.13-5.154 9.536-6.486l1.164 2.538c-2.514.96-4.761 2.505-6.741 4.624-2.126 2.274-3.273 4.711-3.375 7.305l.947.244c.11-.22.47-.543 1.273-.921.784-.348 1.742-.531 2.888-.531 2.344 0 4.15.686 5.478 2.014z" stroke="#BE946F"/></svg><svg fill="none" viewBox="0 0 37 37" id="safe" xmlns="http://www.w3.org/2000/svg"><g clip-path="url(#bwclip0)" fill="#47DFB1"><path d="M33.704 6.39C28.614 4.993 23.493 2.821 18.896.107a.778.778 0 00-.791 0C13.375 2.9 8.53 4.955 3.295 6.39a.778.778 0 00-.572.75v7.953c0 8.19 3.778 13.61 6.947 16.716C13.082 35.15 17.057 37 18.5 37c1.443 0 5.418-1.849 8.83-5.192 3.17-3.105 6.947-8.526 6.947-16.716V7.14a.778.778 0 00-.573-.75zm-.984 8.702c0 7.65-3.523 12.707-6.48 15.604-3.355 3.287-6.942 4.747-7.74 4.747-.797 0-4.385-1.46-7.74-4.747-2.956-2.897-6.48-7.955-6.48-15.604V7.731A61.296 61.296 0 0018.5 1.68a63.236 63.236 0 0014.22 6.05v7.361z"/><path d="M11.601 7.644a.778.778 0 00-1.01-.44 63.323 63.323 0 01-4.24 1.5.778.778 0 00-.546.742v3.006a.778.778 0 001.556 0v-2.437a64.883 64.883 0 003.801-1.362c.4-.158.597-.61.44-1.01zM13.08 7.791c.104 0 .21-.02.312-.065l.014-.006a.777.777 0 00.399-1.025.78.78 0 00-1.027-.4l-.013.006a.777.777 0 00.315 1.49zM27.773 25.097a.778.778 0 00-1.077.225 18.943 18.943 0 01-2.237 2.794 19.876 19.876 0 01-2.232 1.986.778.778 0 00.944 1.238c.85-.648 1.66-1.369 2.407-2.142A20.48 20.48 0 0028 26.174a.778.778 0 00-.226-1.077zM20.42 31.323l-.046.026a.778.778 0 10.78 1.347l.052-.03a.778.778 0 10-.787-1.343zM13.195 16.912a2.514 2.514 0 00-1.79-.741c-.675 0-1.311.263-1.79.74a2.534 2.534 0 000 3.58l4.596 4.596a2.514 2.514 0 001.79.74c.676 0 1.312-.263 1.79-.74l9.594-9.595a2.534 2.534 0 000-3.579 2.514 2.514 0 00-1.79-.74c-.676 0-1.312.262-1.79.74l-7.804 7.805-2.806-2.806zm11.711-3.898a.968.968 0 01.69-.285.975.975 0 01.689 1.663l-9.595 9.594a.968.968 0 01-.689.285.969.969 0 01-.689-.285l-4.596-4.596a.975.975 0 011.378-1.378l3.357 3.357a.779.779 0 001.1 0l8.355-8.355z"/></g><defs><clipPath id="bwclip0"><path fill="#fff" d="M0 0h37v37H0z"/></clipPath></defs></svg><svg fill="none" viewBox="0 0 24 24" id="share" xmlns="http://www.w3.org/2000/svg"><path d="M18 8a3 3 0 100-6 3 3 0 000 6zM6 15a3 3 0 100-6 3 3 0 000 6zM18 22a3 3 0 100-6 3 3 0 000 6zM8.59 13.51l6.83 3.98M15.41 6.51l-6.82 3.98" stroke="#000" stroke-width="2" stroke-linecap="round" stroke-linejoin="round"/></svg><svg fill="none" viewBox="0 0 22 20" id="star-empty" xmlns="http://www.w3.org/2000/svg"><path d="M11 0l2.47 7.6h7.992l-6.466 4.698 2.47 7.601L11 15.202l-6.466 4.697 2.47-7.6L.538 7.6H8.53L11 0z" fill="#474747"/></svg><svg fill="none" viewBox="0 0 22 20" id="star-full" xmlns="http://www.w3.org/2000/svg"><path d="M11 0l2.47 7.6h7.992l-6.466 4.698 2.47 7.601L11 15.202l-6.466 4.697 2.47-7.6L.538 7.6H8.53L11 0z" fill="#BE946F"/></svg><svg fill="none" viewBox="0 0 22 22" id="star-halv" xmlns="http://www.w3.org/2000/svg"><path d="M11 0l2.47 7.6h7.992l-6.466 4.698 2.47 7.601L11 15.202l-6.466 4.697 2.47-7.6L.538 7.6H8.53L11 0z" fill="#474747"/><path d="M11 0v15.202l-6.465 4.697 2.47-7.6L.539 7.6h7.992L11.001 0z" fill="#BE946F"/></svg><svg fill="none" viewBox="0 0 16 16" id="whatsapp" xmlns="http://www.w3.org/2000/svg"><path fill-rule="evenodd" clip-rule="evenodd" d="M8.033 15.863H8.03a7.99 7.99 0 01-3.807-.965L0 16l1.13-4.108A7.885 7.885 0 01.067 7.928C.069 3.557 3.642 0 8.033 0c2.132 0 4.132.827 5.636 2.325A7.861 7.861 0 0116 7.935c-.002 4.37-3.574 7.926-7.967 7.928zm-3.614-2.4l.242.142c1.016.6 2.182.918 3.37.919h.003c3.65 0 6.62-2.956 6.621-6.59 0-1.76-.687-3.416-1.938-4.662a6.592 6.592 0 00-4.68-1.933c-3.653 0-6.624 2.956-6.625 6.59 0 1.245.35 2.457 1.012 3.507l.158.249-.67 2.432 2.507-.655zm7.356-3.822c.139.067.232.112.272.178.05.083.05.48-.116.942-.166.463-.96.886-1.343.942a2.74 2.74 0 01-1.254-.078c-.29-.091-.66-.213-1.135-.418-1.866-.801-3.127-2.601-3.366-2.942a2.334 2.334 0 00-.034-.049l-.002-.002c-.105-.14-.811-1.077-.811-2.047 0-.913.45-1.39.658-1.611l.038-.042a.733.733 0 01.531-.248c.133 0 .266.002.382.007h.044c.116 0 .261 0 .404.34l.22.532c.17.415.36.873.393.94.05.099.083.214.017.346l-.028.057c-.05.101-.086.176-.171.274l-.102.122c-.069.083-.137.166-.197.225-.1.099-.203.206-.087.404.116.199.516.847 1.107 1.373.637.564 1.19.803 1.47.924.054.024.099.043.131.059.2.1.315.082.431-.05.117-.132.498-.578.63-.776.133-.199.266-.166.449-.1.182.067 1.16.546 1.36.645l.109.053z" fill="#BE946F"/></svg></svg>