<svg width="14" height="8" viewBox="0 0 14 8" fill="none" xmlns="http://www.w3.org/2000/svg">
<path fill-rule="evenodd" clip-rule="evenodd" d="M13.76 0.240013C13.44 -0.0800044 12.9211 -0.0800044 12.6011 0.240013L6.99997 5.84117L1.3989 0.240106C1.07888 -0.0799122 0.560031 -0.0799119 0.240013 0.240106C-0.0800044 0.560123 -0.0800044 1.07898 0.240013 1.39899L6.40828 7.56726C6.41227 7.57142 6.41631 7.57554 6.4204 7.57963C6.52607 7.68531 6.65343 7.75609 6.78815 7.79197C7.06149 7.86491 7.3652 7.79416 7.57963 7.57972C7.58502 7.57434 7.59031 7.5689 7.59551 7.56341L13.76 1.3989C14.08 1.07888 14.08 0.560031 13.76 0.240013Z" fill="#BE946F"/>
</svg>
