<svg width="37" height="37" viewBox="0 0 37 37" fill="none" xmlns="http://www.w3.org/2000/svg">
<path d="M24.2071 0C17.3116 0 11.7016 5.60998 11.7016 12.5055C11.7016 14.0385 11.974 15.5281 12.5118 16.9428L0.554425 28.901C0.383517 29.072 0.287476 29.3038 0.287476 29.5454V36.0887C0.287476 36.592 0.695487 37 1.19882 37H6.59099C6.83243 37 7.06397 36.9042 7.23488 36.7336L9.05199 34.9193C9.22326 34.7483 9.31945 34.5162 9.31945 34.2743V32.043H11.5479C12.0512 32.043 12.4592 31.635 12.4592 31.1317V30.2385H13.3525C13.8558 30.2385 14.2639 29.8305 14.2639 29.3271V27.3661H16.2249C16.4665 27.3661 16.6983 27.2701 16.8693 27.0992L19.7686 24.1998C21.1835 24.7381 22.6734 25.0108 24.207 25.0108C31.1025 25.0108 36.7125 19.4009 36.7125 12.5053C36.7125 5.60998 31.1026 0 24.2071 0ZM24.2071 23.1882C22.7154 23.1882 21.2727 22.8869 19.9189 22.2926C19.5689 22.1389 19.1747 22.2235 18.9165 22.475C18.9137 22.4777 18.911 22.4799 18.9082 22.4827L15.8475 25.5434H13.3527C12.8493 25.5434 12.4413 25.9515 12.4413 26.4548V28.4158H11.548C11.0448 28.4158 10.6367 28.8238 10.6367 29.3271V30.2203H8.40818C7.90492 30.2203 7.49684 30.6283 7.49684 31.1317V33.8963L6.21391 35.1772H2.1103V33.8894L13.2494 22.7504C13.5698 22.43 13.5698 21.9107 13.2494 21.5904C12.929 21.2702 12.4099 21.27 12.0893 21.5904L2.1103 31.5695V29.923L14.229 17.8035C14.2317 17.8008 14.2338 17.7982 14.2363 17.7956C14.488 17.5376 14.5728 17.1434 14.4192 16.7931C13.8254 15.4394 13.5245 13.9968 13.5245 12.5056C13.5245 6.61505 18.3168 1.82276 24.2073 1.82276C30.0978 1.82276 34.89 6.61498 34.89 12.5056C34.8898 18.3959 30.0975 23.1882 24.2071 23.1882Z" fill="#47DFB1"/>
<path d="M28.0129 5.2858C26.1306 5.2858 24.5993 6.8171 24.5993 8.69941C24.5993 10.5817 26.1306 12.113 28.0129 12.113C29.8952 12.113 31.4265 10.5817 31.4265 8.69941C31.4265 6.8171 29.8953 5.2858 28.0129 5.2858ZM28.0129 10.2903C27.1357 10.2903 26.422 9.57664 26.422 8.69941C26.422 7.82218 27.1357 7.10848 28.0129 7.10848C28.8901 7.10848 29.6038 7.82218 29.6038 8.69941C29.6038 9.57664 28.8901 10.2903 28.0129 10.2903Z" fill="#47DFB1"/>
</svg>
