<svg width="44" height="44" viewBox="0 0 44 44" fill="none" xmlns="http://www.w3.org/2000/svg">
<path d="M27 12H17C14.2386 12 12 14.2386 12 17V27C12 29.7614 14.2386 32 17 32H27C29.7614 32 32 29.7614 32 27V17C32 14.2386 29.7614 12 27 12Z" stroke="#BE946F" stroke-width="1.5" stroke-linecap="round" stroke-linejoin="round"/>
<path d="M26.0002 21.3703C26.1236 22.2025 25.9815 23.0525 25.594 23.7993C25.2065 24.5461 24.5933 25.1517 23.8418 25.53C23.0903 25.9082 22.2386 26.0399 21.408 25.9062C20.5773 25.7726 19.81 25.3804 19.215 24.7855C18.6201 24.1905 18.2279 23.4232 18.0943 22.5925C17.9606 21.7619 18.0923 20.9102 18.4705 20.1587C18.8488 19.4072 19.4544 18.794 20.2012 18.4065C20.948 18.019 21.7979 17.8769 22.6302 18.0003C23.4791 18.1262 24.265 18.5218 24.8719 19.1286C25.4787 19.7355 25.8743 20.5214 26.0002 21.3703Z" stroke="#BE946F" stroke-width="1.5" stroke-linecap="round" stroke-linejoin="round"/>
<path d="M27.5 16.5H27.51" stroke="#BE946F" stroke-width="1.5" stroke-linecap="round" stroke-linejoin="round"/>
<circle cx="22" cy="22" r="21.5" stroke="#BE946F"/>
</svg>
