<svg width="44" height="44" viewBox="0 0 44 44" fill="none" xmlns="http://www.w3.org/2000/svg">
<path fill-rule="evenodd" clip-rule="evenodd" d="M33.4493 16.0157C33.6161 15.4302 33.4493 15 32.6553 15H30.0297C29.3621 15 29.0543 15.3716 28.8874 15.7815C28.8874 15.7815 27.5521 19.2065 25.6606 21.4313C25.0487 22.0753 24.7705 22.2802 24.4367 22.2802C24.2698 22.2802 24.0194 22.0753 24.0194 21.4899V16.0157C24.0194 15.3131 23.8345 15 23.2781 15H19.1521C18.7349 15 18.484 15.3261 18.484 15.6351C18.484 16.3012 19.4297 16.4548 19.5272 18.3283V22.3973C19.5272 23.2895 19.3741 23.4512 19.0403 23.4512C18.1502 23.4512 15.9851 20.0109 14.7009 16.0742C14.4493 15.3091 14.1969 15 13.5258 15H10.9002C10.15 15 10 15.3716 10 15.7815C10 16.5133 10.8901 20.1433 14.1446 24.9441C16.3143 28.2228 19.3712 30 22.1528 30C23.8218 30 24.0283 29.6053 24.0283 28.9253V26.4474C24.0283 25.6579 24.1864 25.5003 24.7149 25.5003C25.1043 25.5003 25.7719 25.7052 27.3296 27.286C29.1099 29.1595 29.4034 30 30.4047 30H33.0304C33.7805 30 34.1556 29.6053 33.9392 28.8263C33.7024 28.0499 32.8525 26.9234 31.7247 25.5881C31.1127 24.827 30.1947 24.0074 29.9165 23.5975C29.5271 23.0706 29.6384 22.8364 29.9165 22.3681C29.9165 22.3681 33.1155 17.6257 33.4493 16.0157Z" stroke="#BE946F"/>
<circle cx="22" cy="22" r="21.5" stroke="#BE946F"/>
</svg>
