<svg width="44" height="44" viewBox="0 0 44 44" fill="none" xmlns="http://www.w3.org/2000/svg">
<g clip-path="url(#clip0_112_724)">
<path d="M33.2782 16.2869C33.2752 16.2704 33.2717 16.2541 33.2676 16.2379C33.1168 15.6353 32.8096 15.0831 32.3771 14.6372C31.9446 14.1913 31.402 13.8674 30.8043 13.6983C30.7955 13.6959 30.7868 13.6936 30.778 13.6914C30.2762 13.5689 29.462 13.4875 28.5805 13.4288C27.6797 13.3689 26.6475 13.3291 25.6754 13.3028C24.7023 13.2764 23.784 13.2632 23.1093 13.2566C22.7718 13.2533 22.495 13.2517 22.3023 13.2508C22.2059 13.2504 22.1306 13.2502 22.0793 13.2501L22.0206 13.25L22.0054 13.25L22.0015 13.25L22.0005 13.25L22.0002 13.25C22.0001 13.25 22.0001 13.25 22.0001 14C22.0001 13.25 22 13.25 22 13.25L21.9997 13.25L21.9986 13.25L21.9947 13.25L21.9795 13.25L21.9207 13.2501C21.8693 13.2502 21.794 13.2505 21.6976 13.2509C21.5048 13.2518 21.2278 13.2536 20.8902 13.2572C20.2152 13.2645 19.2965 13.2789 18.3228 13.3078C17.3503 13.3367 16.3171 13.3802 15.4149 13.446C14.5337 13.5103 13.714 13.5997 13.2063 13.7355L13.2063 13.7354L13.1959 13.7383C12.5982 13.9074 12.0556 14.2313 11.6231 14.6772C11.1906 15.1231 10.8834 15.6753 10.7325 16.2779C10.7285 16.2941 10.725 16.3104 10.722 16.3269C10.3993 18.1162 10.2413 19.9313 10.2501 21.7495C10.2388 23.5814 10.3968 25.4103 10.722 27.2131C10.7264 27.2375 10.732 27.2616 10.7388 27.2854C10.9051 27.8693 11.2191 28.4005 11.6507 28.8275C12.0822 29.2546 12.6165 29.5632 13.2021 29.7234L13.2063 29.7245C13.714 29.8603 14.5337 29.9497 15.4149 30.014C16.3171 30.0798 17.3503 30.1233 18.3228 30.1522C19.2965 30.1811 20.2152 30.1955 20.8902 30.2028C21.2278 30.2064 21.5048 30.2082 21.6976 30.2091C21.794 30.2095 21.8693 30.2098 21.9207 30.2099L21.9795 30.21L21.9947 30.21L21.9986 30.21H21.9997H22C22 30.21 22.0001 30.21 22.0001 29.46C22.0001 30.21 22.0001 30.21 22.0002 30.21H22.0005H22.0015L22.0055 30.21L22.0207 30.21L22.0794 30.2099C22.1308 30.2098 22.2062 30.2095 22.3026 30.2091C22.4954 30.2082 22.7724 30.2064 23.11 30.2028C23.7849 30.1955 24.7037 30.1811 25.6774 30.1522C26.6498 30.1233 27.6831 30.0798 28.5853 30.014C29.4665 29.9497 30.2861 29.8603 30.7939 29.7245L30.7939 29.7246L30.8043 29.7217C31.402 29.5526 31.9446 29.2287 32.3771 28.7828C32.8096 28.3369 33.1168 27.7847 33.2676 27.1821C33.2717 27.1659 33.2752 27.1495 33.2782 27.1331C33.5984 25.3571 33.7564 23.5557 33.7501 21.751C33.7614 19.919 33.6034 18.0898 33.2782 16.2869Z" stroke="#BE946F" stroke-width="1.5" stroke-linecap="round" stroke-linejoin="round"/>
<path d="M19.75 25.0205L25.5 21.7505L19.75 18.4805V25.0205Z" stroke="#BE946F" stroke-width="1.5" stroke-linecap="round" stroke-linejoin="round"/>
</g>
<circle cx="22" cy="22" r="21.5" stroke="#BE946F"/>
<defs>
<clipPath id="clip0_112_724">
<rect width="24" height="24" fill="white" transform="translate(10 10)"/>
</clipPath>
</defs>
</svg>
