<svg width="32" height="32" viewBox="0 0 32 32" fill="none" xmlns="http://www.w3.org/2000/svg">
<g opacity="0.8" clip-path="url(#clip0_112_3814)">
<path d="M25.5848 4.54526H19.4018V3.40298C19.4018 3.13817 19.1871 2.92383 18.9226 2.92383H13.0085C12.7437 2.92383 12.5294 3.13817 12.5294 3.40298V4.54526H6.34634C6.08153 4.54526 5.86719 4.7596 5.86719 5.02441V28.5397C5.86719 28.8042 6.08153 29.0188 6.34634 29.0188H25.5851C25.8496 29.0188 26.0643 28.8042 26.0643 28.5397V5.02441C26.064 4.7596 25.8493 4.54526 25.5848 4.54526ZM13.4877 3.88212H18.4435V5.81468H13.4877V3.88212ZM25.1057 28.0605H6.8255V5.50356H12.5294V6.29383C12.5294 6.55864 12.7437 6.77298 13.0085 6.77298H18.9226C19.1871 6.77298 19.4018 6.55864 19.4018 6.29383V5.50356H25.1057V28.0605Z" fill="#BE9570" stroke="#BE9570" stroke-width="0.8"/>
<path d="M10.4085 11.9314H8.55704C8.29222 11.9314 8.07788 12.1457 8.07788 12.4105C8.07788 12.6754 8.29222 12.8897 8.55704 12.8897H10.4085C10.6733 12.8897 10.8876 12.6754 10.8876 12.4105C10.8876 12.1457 10.6733 11.9314 10.4085 11.9314Z" fill="#BE9570" stroke="#BE9570" stroke-width="0.8"/>
<path d="M12.2109 12.4105C12.2109 12.6754 12.4253 12.8897 12.6901 12.8897H23.3763C23.6408 12.8897 23.8554 12.6754 23.8554 12.4105C23.8554 12.1457 23.6408 11.9314 23.3763 11.9314H12.6901C12.4256 11.9314 12.2109 12.1461 12.2109 12.4105Z" fill="#BE9570" stroke="#BE9570" stroke-width="0.8"/>
<path d="M10.4085 16.2087H8.55704C8.29222 16.2087 8.07788 16.4234 8.07788 16.6879C8.07788 16.9524 8.29222 17.167 8.55704 17.167H10.4085C10.6733 17.167 10.8876 16.9524 10.8876 16.6879C10.8876 16.4234 10.6733 16.2087 10.4085 16.2087Z" fill="#BE9570" stroke="#BE9570" stroke-width="0.8"/>
<path d="M23.3763 16.2087H12.6901C12.4253 16.2087 12.2109 16.4234 12.2109 16.6879C12.2109 16.9524 12.4253 17.167 12.6901 17.167H23.3763C23.6408 17.167 23.8554 16.9524 23.8554 16.6879C23.8554 16.4234 23.6408 16.2087 23.3763 16.2087Z" fill="#BE9570" stroke="#BE9570" stroke-width="0.8"/>
<path d="M10.4085 20.484H8.55704C8.29222 20.484 8.07788 20.6987 8.07788 20.9632C8.07788 21.2277 8.29222 21.4423 8.55704 21.4423H10.4085C10.6733 21.4423 10.8876 21.2277 10.8876 20.9632C10.8876 20.6987 10.6733 20.484 10.4085 20.484Z" fill="#BE9570" stroke="#BE9570" stroke-width="0.8"/>
<path d="M23.3763 20.484H12.6901C12.4253 20.484 12.2109 20.6987 12.2109 20.9632C12.2109 21.2277 12.4253 21.4423 12.6901 21.4423H23.3763C23.6408 21.4423 23.8554 21.2277 23.8554 20.9632C23.8554 20.6987 23.6408 20.484 23.3763 20.484Z" fill="#BE9570" stroke="#BE9570" stroke-width="0.8"/>
</g>
<defs>
<clipPath id="clip0_112_3814">
<rect width="32" height="32" fill="white"/>
</clipPath>
</defs>
</svg>
