<svg width="36" height="36" viewBox="0 0 36 36" fill="none" xmlns="http://www.w3.org/2000/svg">
<path d="M18.2409 26.851H6.95012V10.1602L16.5351 1.82255L25.8901 9.81849V20.2979C25.8901 20.5945 26.1304 20.8352 26.4274 20.8352C26.7243 20.8352 26.9647 20.5945 26.9647 20.2979V10.7369L30.4612 13.7255C30.5625 13.8118 30.6865 13.8541 30.8101 13.8541C30.9616 13.8541 31.1124 13.7899 31.2188 13.666C31.4119 13.4403 31.385 13.1015 31.1593 12.9084L16.8811 0.704934C16.6784 0.53156 16.38 0.533351 16.1794 0.707799L2.19955 12.8683C1.97567 13.0631 1.95203 13.4024 2.1469 13.6262C2.34176 13.8501 2.68063 13.8734 2.90487 13.6789L5.87549 11.0948V27.3879C5.87549 27.6845 6.11585 27.9252 6.41281 27.9252H18.2409C18.5378 27.9252 18.7782 27.6845 18.7782 27.3879C18.7782 27.0913 18.5378 26.851 18.2409 26.851Z" fill="black"/>
<path d="M33.1224 32.5232L20.8398 18.577C20.9899 17.1123 20.6013 15.9273 19.695 15.1464C18.5928 14.1968 17.5794 14.3774 16.0463 14.6496C15.8453 14.6854 15.6325 14.7234 15.4054 14.7614C14.8269 14.8584 14.339 14.2882 13.8089 13.5897C13.4335 13.095 13.109 12.6684 12.6021 12.8016C12.1085 12.932 11.9935 13.4951 11.9244 14.0124C11.6188 16.3035 11.765 19.4865 13.181 20.9175C14.3394 22.0925 15.9392 22.2572 16.7451 22.2572C16.8444 22.2572 16.926 22.2544 16.9987 22.2512L31.0767 34.5692C31.5127 34.9995 32.0532 35.2459 32.5611 35.2455C32.5651 35.2455 32.5694 35.2455 32.5733 35.2455C32.9233 35.243 33.2389 35.1162 33.4627 34.8884C34.0284 34.3117 33.8779 33.2757 33.1224 32.5232ZM12.9746 14.2681C13.4861 14.9415 14.3337 16.0312 15.582 15.8213C15.8131 15.783 16.0298 15.7443 16.234 15.7081C17.7524 15.4377 18.3127 15.3739 18.9933 15.961C19.6366 16.5155 19.8941 17.3727 19.7691 18.5046L16.9543 21.1769C16.4582 21.1984 14.9433 21.1744 13.9454 20.1628C12.9005 19.1057 12.7106 16.3919 12.9746 14.2681ZM20.2481 19.5313L21.365 20.7993L19.3142 22.8494L17.9813 21.683L20.2481 19.5313ZM32.6958 34.1355C32.6736 34.1577 32.6217 34.1688 32.5615 34.1706C32.3953 34.1706 32.1058 34.0746 31.8078 33.7823L20.1248 23.5586L22.0767 21.6075L32.3283 33.2471C32.3369 33.2568 32.3458 33.2664 32.3552 33.2754C32.7234 33.6372 32.7857 34.0441 32.6958 34.1355Z" fill="black"/>
</svg>
