<svg width="22" height="22" viewBox="0 0 22 22" fill="none" xmlns="http://www.w3.org/2000/svg">
<path d="M11.4103 16.7417L11.4103 16.7418L14.283 20.9245L14.2831 20.9246C14.3799 21.0654 14.5398 21.1495 14.7107 21.1495H20.631C20.9178 21.1495 21.15 20.917 21.15 20.6305V1.36902V1.36884C21.1497 1.08254 20.9176 0.85 20.6307 0.85H1.36902C1.08216 0.85 0.85 1.08255 0.85 1.36902V20.631C0.85 20.9175 1.08216 21.15 1.36902 21.15H8.73386C9.02072 21.15 9.25288 20.9175 9.25288 20.631C9.25288 20.3445 9.02072 20.112 8.73386 20.112H1.88803V14.7098H5.51505C5.8019 14.7098 6.03407 14.4773 6.03407 14.1908C6.03407 13.9043 5.8019 13.6718 5.51505 13.6718H1.88803V1.88804H10.9729V7.5617C10.9729 7.84818 11.205 8.08072 11.4919 8.08072C11.7788 8.08072 12.0109 7.84818 12.0109 7.5617V1.88804H20.1117V10.7063H8.35082C8.06397 10.7063 7.83181 10.9389 7.83181 11.2253C7.83181 11.5118 8.06397 11.7444 8.35082 11.7444H20.1117V20.1117H14.9838L12.2658 16.154C12.2658 16.154 12.2658 16.154 12.2658 16.154C12.1038 15.918 11.7804 15.8573 11.5441 16.0202L11.6292 16.1437L11.5443 16.02C11.3078 16.1824 11.2481 16.5053 11.4103 16.7417Z" fill="white" stroke="white" stroke-width="0.3"/>
</svg>
