<svg width="24" height="30" viewBox="0 0 24 30" fill="none" xmlns="http://www.w3.org/2000/svg">
<path d="M23.2229 4.9756C23.2219 4.95718 23.2201 4.93912 23.2176 4.92106C23.2147 4.90336 23.2115 4.88603 23.2072 4.86905C23.2029 4.85208 23.1979 4.8351 23.1919 4.81885C23.1858 4.80224 23.1794 4.78599 23.1715 4.7701C23.164 4.75457 23.1561 4.73976 23.1472 4.72531C23.1383 4.71014 23.1286 4.6957 23.1183 4.68161C23.1079 4.66789 23.0972 4.65452 23.0857 4.64188C23.0743 4.62924 23.0625 4.61696 23.05 4.60541C23.0371 4.59349 23.0239 4.58229 23.0096 4.57182C22.996 4.5617 22.9825 4.55195 22.9678 4.54329C22.9528 4.5339 22.9374 4.52559 22.9217 4.518C22.906 4.51042 22.8903 4.50356 22.8738 4.49742C22.8574 4.49128 22.841 4.48622 22.8238 4.48189C22.8063 4.47719 22.7884 4.47358 22.7702 4.47069C22.7609 4.46925 22.7524 4.466 22.7431 4.46527C18.4852 4.03477 15.1554 3.15967 11.7158 0.133126C11.4925 -0.063347 11.1534 -0.0395103 10.9597 0.185855C10.9472 0.200302 10.9379 0.216554 10.9272 0.232084C7.46835 3.24852 4.57977 4.05138 0.482739 4.46491C0.208675 4.49272 0 4.72567 0 5.00413V17.6921C0 17.7402 0.00643158 17.7879 0.0189378 17.8341C2.19252 25.9364 10.9586 29.7857 11.3306 29.9457C11.3978 29.9746 11.4693 29.989 11.5404 29.989C11.6108 29.989 11.6819 29.9749 11.748 29.9468C12.1246 29.7871 20.9911 25.9382 23.1647 17.8344C23.1722 17.8059 23.1779 17.777 23.1808 17.7474L23.2229 17.3281C23.2247 17.31 23.2258 17.2916 23.2258 17.2732V5.00449C23.2258 4.99402 23.2237 4.98499 23.2229 4.9756ZM22.1188 17.5921C20.2429 24.4899 12.8814 28.2229 11.5414 28.8517C10.2133 28.2211 2.95861 24.4965 1.0716 17.6185V5.49134C4.95532 5.05686 7.96752 4.1572 11.3814 1.26068C14.7645 4.09689 18.1676 5.0435 22.1535 5.48953V17.245L22.1188 17.5921Z" fill="black"/>
<path d="M16.6153 11.6854H16.1008C15.8178 9.28624 13.7786 7.41833 11.3095 7.41833C8.84041 7.41833 6.80118 9.28624 6.51854 11.6854H5.89609C5.60023 11.6854 5.36011 11.9278 5.36011 12.2272V20.1726C5.36011 20.472 5.60023 20.7144 5.89609 20.7144H16.6157C16.9116 20.7144 17.1517 20.472 17.1517 20.1726V12.2272C17.1513 11.9278 16.9112 11.6854 16.6153 11.6854ZM11.3091 8.50181C13.1858 8.50181 14.7408 9.88576 15.017 11.6854H7.60122C7.87779 9.88576 9.43249 8.50181 11.3091 8.50181ZM16.0794 12.7689V19.6309H6.43171V12.7689H16.0794Z" fill="black"/>
</svg>
