<svg width="24" height="21" viewBox="0 0 24 21" fill="none" xmlns="http://www.w3.org/2000/svg">
<path d="M2.94329 17.4868C2.75201 17.4868 2.59717 17.6417 2.59717 17.833C2.59717 18.0243 2.75201 18.1791 2.94329 18.1791H20.7509C20.9422 18.1791 21.0971 18.0243 21.0971 17.833C21.0971 17.6417 20.9422 17.4868 20.7509 17.4868H18.8193V7.27035H20.7509C20.9422 7.27035 21.0971 7.11551 21.0971 6.92423C21.0971 6.73294 20.9422 6.57811 20.7509 6.57811H4.92642C4.89545 6.56905 4.86353 6.56262 4.8297 6.56262C4.79588 6.56262 4.76372 6.56905 4.73299 6.57811H2.94329C2.75201 6.57811 2.59717 6.73294 2.59717 6.92423C2.59717 7.11551 2.75201 7.27035 2.94329 7.27035H4.48501V17.4868H2.94329ZM9.86339 17.4868V7.27035H13.6881V17.4868H9.86339ZM18.127 17.4868H14.3804V7.27035H18.127V17.4868ZM5.1744 7.27035H9.17114V17.4868H5.1744V7.27035Z" fill="black"/>
<path d="M22.8499 20.3058H0.844415C0.65313 20.3058 0.498291 20.4607 0.498291 20.652C0.498291 20.8433 0.65313 20.9981 0.844415 20.9981H22.8499C23.0411 20.9981 23.196 20.8433 23.196 20.652C23.196 20.4607 23.0411 20.3058 22.8499 20.3058Z" fill="black"/>
<path d="M23.1486 6.57522L12.1458 0.288296C12.0398 0.22779 11.9093 0.227552 11.8032 0.28782L0.728229 6.57475C0.561956 6.66908 0.503832 6.88037 0.598164 7.04665C0.662005 7.15908 0.778968 7.22197 0.899504 7.22197C0.95739 7.22197 1.01599 7.20744 1.07006 7.17695L11.9736 0.987214L22.8054 7.17624C22.9707 7.27057 23.1822 7.21364 23.2775 7.04736C23.3723 6.88157 23.3147 6.67027 23.1486 6.57522Z" fill="black"/>
</svg>
