<svg width="36" height="36" viewBox="0 0 36 36" fill="none" xmlns="http://www.w3.org/2000/svg">
<path d="M4.41494 27.7303C4.12801 27.7303 3.89575 27.9625 3.89575 28.2495C3.89575 28.5364 4.12801 28.7686 4.41494 28.7686H31.1264C31.4133 28.7686 31.6456 28.5364 31.6456 28.2495C31.6456 27.9625 31.4133 27.7303 31.1264 27.7303H28.2289V12.4055H31.1264C31.4133 12.4055 31.6456 12.1733 31.6456 11.8863C31.6456 11.5994 31.4133 11.3672 31.1264 11.3672H7.38963C7.34318 11.3536 7.2953 11.3439 7.24456 11.3439C7.19382 11.3439 7.14558 11.3536 7.09948 11.3672H4.41494C4.12801 11.3672 3.89575 11.5994 3.89575 11.8863C3.89575 12.1733 4.12801 12.4055 4.41494 12.4055H6.72751V27.7303H4.41494ZM14.7951 27.7303V12.4055H20.5322V27.7303H14.7951ZM27.1905 27.7303H21.5706V12.4055H27.1905V27.7303ZM7.7616 12.4055H13.7567V27.7303H7.7616V12.4055Z" fill="black"/>
<path d="M34.2749 31.9588H1.26674C0.979817 31.9588 0.747559 32.1911 0.747559 32.478C0.747559 32.7649 0.979817 32.9972 1.26674 32.9972H34.2749C34.5618 32.9972 34.7941 32.7649 34.7941 32.478C34.7941 32.1911 34.5618 31.9588 34.2749 31.9588Z" fill="black"/>
<path d="M34.7228 11.3628L18.2186 1.93244C18.0596 1.84169 17.8638 1.84133 17.7047 1.93173L1.09222 11.3621C0.842811 11.5036 0.755625 11.8206 0.897124 12.07C0.992886 12.2386 1.16833 12.333 1.34913 12.333C1.43596 12.333 1.52386 12.3112 1.60498 12.2654L17.9602 2.98082L34.2079 12.2644C34.4559 12.4059 34.7732 12.3205 34.9161 12.071C35.0584 11.8223 34.9719 11.5054 34.7228 11.3628Z" fill="black"/>
</svg>
