<svg width="80" height="50" viewBox="0 0 80 50" fill="none" xmlns="http://www.w3.org/2000/svg">
<path d="M0 8C0 3.58173 3.58172 0 8 0H72C76.4183 0 80 3.58172 80 8V41.1667C80 45.5849 76.4183 49.1667 72 49.1667H8C3.58172 49.1667 0 45.5849 0 41.1667V8Z" fill="#FF5500"/>
<path d="M13.9583 33.7393H15.3534V39.1726H13.8786V36.2852L12.6827 38.0704H11.8377L10.6419 36.2774V39.1726H9.16699V33.7393H10.5621L12.2602 36.2852L13.9583 33.7393Z" fill="white"/>
<path d="M21.4299 39.1726H19.955V36.9527C19.955 36.5853 19.9657 36.2878 19.9869 36.0601L17.8025 39.1726H16.4074V33.7393H17.8823V35.9592C17.8823 36.3317 17.8716 36.6319 17.8504 36.8596L20.0348 33.7393H21.4299V39.1726Z" fill="white"/>
<path d="M22.48 33.7393H24.6883C26.3093 33.7393 27.1198 34.3602 27.1198 35.6021C27.1198 36.8337 26.3093 37.4546 24.6883 37.465H23.9549V39.1726H22.48V33.7393ZM24.7601 36.2231C25.3234 36.2231 25.6051 36.0161 25.6051 35.6021C25.6051 35.1882 25.3234 34.9812 24.7601 34.9812H23.9549V36.2231H24.7601Z" fill="white"/>
<path d="M30.9539 39.1726H29.4791V33.7393H30.9539V35.7962H31.6555L32.9231 33.7393H34.5574L32.8035 36.3861L34.6371 39.1726H33.0028L31.6475 37.0769H30.9539V39.1726Z" fill="white"/>
<path d="M35.1079 33.7393H37.6271C38.2543 33.7393 38.7353 33.8531 39.0701 34.0808C39.4102 34.3085 39.5803 34.6526 39.5803 35.1131C39.5803 35.7082 39.3039 36.1015 38.7512 36.2929C39.4528 36.4947 39.8035 36.9423 39.8035 37.6357C39.8035 37.9307 39.7371 38.1843 39.6042 38.3964C39.4714 38.6034 39.288 38.7612 39.0541 38.8699C38.8256 38.9786 38.5864 39.0562 38.3366 39.1028C38.0922 39.1493 37.8238 39.1726 37.5314 39.1726H35.1079V33.7393ZM37.5793 38.0471C38.0736 38.0471 38.3207 37.8583 38.3207 37.4805C38.3207 37.1028 38.0736 36.9139 37.5793 36.9139H36.5748V38.0471H37.5793ZM37.938 35.7418C38.0496 35.6487 38.1054 35.5245 38.1054 35.3693C38.1054 35.214 38.0496 35.0924 37.938 35.0045C37.8317 34.9113 37.6829 34.8647 37.4916 34.8647H36.5827V35.866L37.4916 35.8738C37.6829 35.8738 37.8317 35.8298 37.938 35.7418Z" fill="white"/>
<path d="M41.3595 39.1726H39.8448L42.0372 33.7393H43.6316L45.824 39.1726H44.3093L43.9904 38.3188H41.6784L41.3595 39.1726ZM42.6909 35.5866L42.1169 37.1545H43.5519L42.9779 35.5866C42.9141 35.4107 42.8663 35.227 42.8344 35.0355C42.8025 35.227 42.7547 35.4107 42.6909 35.5866Z" fill="white"/>
<path d="M46.3578 33.7393H48.5661C50.1871 33.7393 50.9976 34.3602 50.9976 35.6021C50.9976 36.8337 50.1871 37.4546 48.5661 37.465H47.8326V39.1726H46.3578V33.7393ZM48.6378 36.2231C49.2012 36.2231 49.4829 36.0161 49.4829 35.6021C49.4829 35.1882 49.2012 34.9812 48.6378 34.9812H47.8326V36.2231H48.6378Z" fill="white"/>
<path d="M51.276 33.7393H55.8999V35.02H54.3294V39.1726H52.8545V35.02H51.276V33.7393Z" fill="white"/>
<path d="M61.5558 39.1726H60.0809V36.9527C60.0809 36.5853 60.0915 36.2878 60.1128 36.0601L57.9284 39.1726H56.5333V33.7393H58.0081V35.9592C58.0081 36.3317 57.9975 36.6319 57.9762 36.8596L60.1606 33.7393H61.5558V39.1726Z" fill="white"/>
<path d="M62.6059 33.7393H64.8142C66.4352 33.7393 67.2457 34.3602 67.2457 35.6021C67.2457 36.8337 66.4352 37.4546 64.8142 37.465H64.0807V39.1726H62.6059V33.7393ZM64.8859 36.2231C65.4493 36.2231 65.731 36.0161 65.731 35.6021C65.731 35.1882 65.4493 34.9812 64.8859 34.9812H64.0807V36.2231H64.8859Z" fill="white"/>
<path d="M13.2343 17.8242H14.834C15.6507 17.8242 16.3129 17.1804 16.3129 16.3853V13.6569C16.3129 12.8617 15.6507 12.217 14.834 12.217H13.2343C12.4175 12.217 11.7554 12.8617 11.7554 13.6569V16.3853C11.7554 17.1804 12.4175 17.8242 13.2343 17.8242Z" fill="white"/>
<path d="M33.244 17.8242H34.8437C35.6605 17.8242 36.3226 17.1804 36.3226 16.3853V13.6569C36.3226 12.8617 35.6605 12.217 34.8437 12.217H33.244C32.4273 12.217 31.7651 12.8617 31.7651 13.6569V16.3853C31.7651 17.1804 32.4273 17.8242 33.244 17.8242Z" fill="white"/>
<path d="M59.1894 16.3853V13.6569C59.1894 12.8617 58.5272 12.217 57.7114 12.217H56.1108C55.2941 12.217 54.6328 12.8617 54.6328 13.6569V16.3853C54.6328 17.1804 55.2941 17.8242 56.1108 17.8242H57.7105C58.5272 17.8242 59.1894 17.1804 59.1894 16.3853Z" fill="white"/>
<path d="M64.5553 21.3791L68.3308 17.7033C68.9957 17.0549 68.9957 16.0017 68.3308 15.3533L66.7404 13.8049C66.4192 13.4931 65.9911 13.3207 65.5341 13.3207C65.077 13.3207 64.6481 13.4931 64.3277 13.8049L59.4312 18.5714C59.4003 18.5969 59.3703 18.6243 59.3422 18.6526L57.7509 20.2009C57.5262 20.4198 57.3726 20.6906 57.3004 20.9852C57.2995 20.9916 57.2976 20.997 57.2967 21.0034C57.293 21.0189 57.2883 21.0362 57.2855 21.0527C57.1759 21.5806 57.3314 22.1497 57.75 22.5582L59.3413 24.1057C59.3731 24.1376 59.4069 24.1677 59.4415 24.1969L64.3277 28.9533C64.6481 29.2652 65.077 29.4375 65.5341 29.4375C65.9911 29.4375 66.4192 29.2652 66.7404 28.9533L68.3308 27.404C68.9957 26.7565 68.9957 25.7024 68.3308 25.0549L64.5553 21.3791Z" fill="white"/>
<path d="M43.8811 13.8049C43.5598 13.4922 43.1309 13.3207 42.6747 13.3207H42.67H42.6663C42.2092 13.3207 41.7812 13.4922 41.46 13.8049L32.6822 22.3512L23.9044 13.8049C23.5831 13.4922 23.1551 13.3207 22.698 13.3207H22.6943H22.6905C22.2335 13.3207 21.8045 13.4922 21.4842 13.8049L9.92845 25.0549C9.60626 25.3686 9.43018 25.7854 9.43018 26.2295C9.43018 26.6736 9.60626 27.0912 9.92845 27.404L11.5188 28.9524C11.84 29.2652 12.2681 29.4375 12.7251 29.4375C13.1831 29.4375 13.6112 29.2652 13.9315 28.9524L22.6943 20.4216L31.4562 28.9524C31.7765 29.2652 32.2054 29.4375 32.6625 29.4375H32.6822H32.7009C33.1589 29.4375 33.5879 29.2652 33.9091 28.9524L42.67 20.4216L51.4329 28.9524C51.7532 29.2652 52.1812 29.4375 52.6392 29.4375C53.0963 29.4375 53.5252 29.2652 53.8455 28.9524L55.4359 27.404C55.7571 27.0921 55.9332 26.6745 55.9332 26.2295C55.9332 25.7845 55.7571 25.3677 55.4359 25.0549L43.8811 13.8049Z" fill="white"/>
<path d="M71.4963 9.57607C70.5831 9.57607 69.8404 10.2992 69.8404 11.1883C69.8404 12.0765 70.5831 12.7996 71.4963 12.7996C72.4095 12.7996 73.1513 12.0765 73.1513 11.1883C73.1513 10.2992 72.4095 9.57607 71.4963 9.57607ZM71.4963 13.21C70.3509 13.21 69.4189 12.3026 69.4189 11.1883C69.4189 10.0731 70.3509 9.16572 71.4963 9.16572C72.6418 9.16572 73.5728 10.0731 73.5728 11.1883C73.5728 12.3026 72.6418 13.21 71.4963 13.21Z" fill="white"/>
<path d="M71.146 11.4005V12.2012H70.585V10.0847H71.441C71.7276 10.0847 71.9374 10.1312 72.0695 10.226C72.2043 10.3181 72.2699 10.4668 72.2699 10.6692C72.2699 10.8096 72.2362 10.9245 72.1669 11.0139C72.0976 11.1023 71.9936 11.1698 71.8522 11.2118C71.9309 11.23 71.9974 11.2683 72.0592 11.3285C72.12 11.3878 72.1809 11.478 72.2427 11.6021L72.5481 12.2012H71.9515L71.6855 11.6759C71.634 11.5711 71.5787 11.4963 71.5234 11.4589C71.4691 11.4206 71.3951 11.4005 71.3043 11.4005H71.146ZM71.382 11.0248C71.4981 11.0248 71.5824 11.002 71.634 10.9592C71.6836 10.9181 71.7117 10.8479 71.7117 10.7494C71.7117 10.6528 71.6836 10.5844 71.634 10.5424C71.5824 10.5014 71.4981 10.4804 71.382 10.4804H71.146V11.0248H71.382Z" fill="white"/>
</svg>
