<svg width="58" height="57" viewBox="0 0 58 57" fill="none" xmlns="http://www.w3.org/2000/svg">
<path d="M51.4427 18.338H43.1929L37.4353 8.10662C37.2827 7.83512 36.992 7.66699 36.677 7.66699H21.1033C20.7854 7.66699 20.4935 7.83796 20.3415 8.1123L14.6856 18.338H6.35376C5.87463 18.338 5.48682 18.7191 5.48682 19.19V48.279C5.48682 48.7493 5.87463 49.131 6.35376 49.131H51.4427C51.9213 49.131 52.3097 48.7493 52.3097 48.279V19.19C52.3097 18.7191 51.9213 18.338 51.4427 18.338ZM50.5758 47.427H7.2207V20.042H15.2012C15.519 20.042 15.8109 19.8711 15.9629 19.5967L21.6188 9.37099H36.1655L41.9231 19.6024C42.0757 19.8739 42.3664 20.042 42.6814 20.042H50.5752V47.427H50.5758Z" fill="#BE946F"/>
<path d="M28.9024 16.9307C21.1855 16.9307 14.9077 23.0997 14.9077 30.6831C14.9077 38.2653 21.1855 44.4333 28.9024 44.4333C36.6124 44.4333 42.8844 38.2653 42.8844 30.6831C42.8844 23.0997 36.6124 16.9307 28.9024 16.9307ZM28.9024 42.7292C22.142 42.7292 16.6416 37.3253 16.6416 30.6831C16.6416 24.0398 22.142 18.6347 28.9024 18.6347C35.6565 18.6347 41.1506 24.0398 41.1506 30.6831C41.1506 37.3253 35.6559 42.7292 28.9024 42.7292Z" fill="#BE946F"/>
<path d="M28.8971 22.0947C24.0798 22.0947 20.1606 25.9475 20.1606 30.6829C20.1606 35.4172 24.0798 39.2688 28.8971 39.2688C33.7098 39.2688 37.6254 35.4172 37.6254 30.6829C37.6254 25.9475 33.7098 22.0947 28.8971 22.0947ZM28.8971 37.5648C25.0357 37.5648 21.8945 34.4771 21.8945 30.6829C21.8945 26.8869 25.0363 23.7987 28.8971 23.7987C32.7538 23.7987 35.8916 26.8869 35.8916 30.6829C35.8916 34.4771 32.7538 37.5648 28.8971 37.5648Z" fill="#BE946F"/>
</svg>
