<svg width="58" height="58" viewBox="0 0 58 58" fill="none" xmlns="http://www.w3.org/2000/svg">
<path d="M50.5936 6.68457H15.3353C13.23 6.68457 11.5431 8.16487 11.4946 10.0768V17.472C11.4946 17.9504 11.8819 18.3377 12.3603 18.3377C12.8387 18.3377 13.226 17.9504 13.226 17.472V10.0988C13.2496 9.17078 14.1961 8.41591 15.3353 8.41591H50.5936C51.7582 8.41591 52.7052 9.18636 52.7052 10.134V38.3814C52.7052 39.3296 51.7576 40.1007 50.5936 40.1007H15.3353C14.1724 40.1007 13.226 39.3296 13.226 38.3814V34.3376C13.226 33.8597 12.8387 33.4719 12.3603 33.4719C11.8819 33.4719 11.4946 33.8597 11.4946 34.3376V38.3814C11.4946 40.2842 13.2173 41.832 15.3353 41.832H31.9666V49.297H20.9778C20.4993 49.297 20.1121 49.6848 20.1121 50.1626C20.1121 50.6405 20.4993 51.0283 20.9778 51.0283H44.5898C45.0677 51.0283 45.4555 50.6405 45.4555 50.1626C45.4555 49.6848 45.0677 49.297 44.5898 49.297H33.698V41.8314H50.5936C52.7127 41.8314 54.4366 40.2836 54.4366 38.3808V10.134C54.4366 8.23181 52.7127 6.68457 50.5936 6.68457Z" fill="#BE946F"/>
<path d="M27.1992 20.8095H45.754C46.2318 20.8095 46.6196 20.4222 46.6196 19.9438C46.6196 19.4654 46.2318 19.0781 45.754 19.0781H27.1992C26.7207 19.0781 26.3335 19.4654 26.3335 19.9438C26.3335 20.4222 26.7207 20.8095 27.1992 20.8095Z" fill="#BE946F"/>
<path d="M27.1992 26.2919H45.754C46.2318 26.2919 46.6196 25.9046 46.6196 25.4262C46.6196 24.9478 46.2318 24.5605 45.754 24.5605H27.1992C26.7207 24.5605 26.3335 24.9478 26.3335 25.4262C26.3335 25.9046 26.7207 26.2919 27.1992 26.2919Z" fill="#BE946F"/>
<path d="M27.1992 32.0761H45.754C46.2318 32.0761 46.6196 31.6883 46.6196 31.2104C46.6196 30.7325 46.2318 30.3447 45.754 30.3447H27.1992C26.7207 30.3447 26.3335 30.7325 26.3335 31.2104C26.3335 31.6883 26.7207 32.0761 27.1992 32.0761Z" fill="#BE946F"/>
<path d="M12.1837 28.1207C12.407 28.1207 12.6287 28.0347 12.796 27.8673L25.3032 15.3595C25.6414 15.0213 25.6414 14.4731 25.3032 14.1355C24.9651 13.7973 24.4174 13.7973 24.0792 14.1355L12.0896 26.1256L4.64312 20.8242C4.25299 20.5472 3.71338 20.6384 3.43579 21.0274C3.15878 21.4169 3.24938 21.9577 3.63951 22.2347L11.6828 27.9602C11.8334 28.0682 12.0094 28.1207 12.1837 28.1207Z" fill="#BE946F"/>
</svg>
