<svg width="58" height="58" viewBox="0 0 58 58" fill="none" xmlns="http://www.w3.org/2000/svg">
<path d="M47.6326 9.49707H10.3676C9.88674 9.49707 9.49756 9.88625 9.49756 10.3671V47.6321C9.49756 48.1123 9.88674 48.5021 10.3676 48.5021H24.6158C25.0967 48.5021 25.4858 48.1123 25.4858 47.6321C25.4858 47.1518 25.0967 46.7621 24.6158 46.7621H11.2376V36.0437H18.3895C18.8704 36.0437 19.2595 35.6539 19.2595 35.1737C19.2595 34.6934 18.8704 34.3037 18.3895 34.3037H11.2376V11.2371H29.0824V22.347C29.0824 22.8278 29.4722 23.217 29.9524 23.217C30.4327 23.217 30.8224 22.8278 30.8224 22.347V11.2371H46.7626V28.5669H23.8746C23.3938 28.5669 23.0046 28.9561 23.0046 29.4369C23.0046 29.9171 23.3938 30.3069 23.8746 30.3069H46.7626V46.7621H36.6363L31.3363 39.0463C31.0643 38.6508 30.5237 38.5504 30.1264 38.8219C29.7303 39.0939 29.6305 39.635 29.902 40.0318L35.4613 48.1245C35.6231 48.3606 35.8916 48.5015 36.1781 48.5015H47.632C48.1122 48.5015 48.502 48.1117 48.502 47.6315V10.3665C48.5026 9.88625 48.1128 9.49707 47.6326 9.49707Z" fill="#BE946F"/>
</svg>
