<svg width="58" height="58" viewBox="0 0 58 58" fill="none" xmlns="http://www.w3.org/2000/svg">
<path d="M16.3632 22.9816C16.5326 23.1504 16.7545 23.2353 16.9765 23.2353C17.1984 23.2353 17.4203 23.1509 17.5897 22.9816L18.6953 21.876L19.8009 22.9816C19.9703 23.1509 20.1922 23.2353 20.4142 23.2353C20.6361 23.2353 20.858 23.1509 21.0274 22.9816C21.3661 22.6429 21.3661 22.0938 21.0274 21.7552L19.9217 20.6489L21.0274 19.5427C21.3661 19.204 21.3661 18.655 21.0274 18.3163C20.6887 17.9782 20.1402 17.9782 19.8015 18.3163L18.6959 19.4219L17.5903 18.3163C17.2516 17.9776 16.7031 17.9782 16.3644 18.3163C16.0257 18.655 16.0257 19.204 16.3644 19.5427L17.47 20.6489L16.3644 21.7552C16.0246 22.0938 16.0246 22.6429 16.3632 22.9816Z" fill="#BE946F"/>
<path d="M51.8793 20.8861C51.7388 20.8861 51.6013 20.897 51.4637 20.9069V11.7156C51.4637 11.2364 51.0753 10.8486 50.5968 10.8486H29.0701H7.54341C7.06486 10.8486 6.67648 11.2364 6.67648 11.7156V20.9444C6.42737 20.9098 6.17538 20.8861 5.91704 20.8861C2.8683 20.8861 0.387695 23.3661 0.387695 26.4142C0.387695 28.8671 2.05164 31.02 4.36406 31.7003V42.8578C4.36406 45.1118 5.90432 46.9463 7.79772 46.9463C7.83702 46.9463 7.87574 46.9411 7.91504 46.9399C7.93701 46.9416 7.95839 46.9463 7.98093 46.9463H50.0015C51.8937 46.9463 53.4334 45.1124 53.4334 42.8578V31.7003C55.7458 31.02 57.4098 28.8671 57.4098 26.4142C57.4092 23.3661 54.9286 20.8861 51.8793 20.8861ZM49.7299 21.3218C47.7474 22.1622 46.3534 24.129 46.3534 26.4148C46.3534 26.5293 46.3447 26.7379 46.3349 26.9911C46.2864 28.2146 46.276 28.8931 46.3528 29.3012L46.3419 31.9297H29.9365V12.5837H49.7293L49.7299 21.3218ZM11.5013 42.9503L11.462 33.663H46.3355L46.2974 42.9543C46.2974 43.7854 46.5493 44.5657 46.9707 45.213H10.8268C11.2493 44.5639 11.5013 43.7831 11.5013 42.9503ZM8.41035 12.5831H28.2032V31.9291H11.4545L11.4435 29.3006C11.5198 28.8925 11.51 28.2146 11.4614 26.9911C11.451 26.7379 11.4429 26.5293 11.4429 26.4148C11.4429 24.2648 10.2067 22.4021 8.41035 21.4883V12.5831ZM6.09736 42.8578V31.0056C6.09736 30.5761 5.78295 30.2109 5.35815 30.1479C3.51272 29.8739 2.121 28.2689 2.121 26.4142C2.121 24.322 3.82367 22.6199 5.91646 22.6199C6.36842 22.6199 6.80074 22.7037 7.203 22.8494C7.20646 22.8511 7.20993 22.8517 7.2134 22.8534C8.66639 23.3852 9.70845 24.7786 9.70845 26.4142C9.70845 26.542 9.7177 26.7755 9.7281 27.0587C9.74775 27.5528 9.79341 28.7099 9.74486 28.9567C9.72001 29.0388 9.70787 29.1237 9.70845 29.2093L9.76683 42.9537C9.76683 44.2466 8.7265 45.2124 7.79714 45.2124C6.87587 45.2124 6.09736 44.1339 6.09736 42.8578ZM52.4388 30.1479C52.0139 30.2109 51.6995 30.5761 51.6995 31.0056V42.8578C51.6995 44.1339 50.9216 45.2124 50.0015 45.2124C49.0698 45.2124 48.0318 44.2848 48.0318 42.9572L48.0884 29.2093C48.089 29.1231 48.0821 29.0601 48.0572 28.9781C48.0023 28.7093 48.0486 27.5528 48.0682 27.0593C48.0798 26.7761 48.0884 26.542 48.0884 26.4142C48.0884 24.7197 49.2045 23.2817 50.7395 22.7962C50.7956 22.787 50.8499 22.7725 50.902 22.7529C51.2146 22.6691 51.5412 22.6199 51.8799 22.6199C53.9732 22.6199 55.6759 24.322 55.6759 26.4142C55.6753 28.2689 54.2842 29.8739 52.4388 30.1479Z" fill="#BE946F"/>
<path d="M38.3645 20.6499L37.2589 21.7561C36.9202 22.0948 36.9202 22.6439 37.2589 22.9826C37.4282 23.1513 37.6502 23.2363 37.8721 23.2363C38.094 23.2363 38.316 23.1519 38.4853 22.9826L39.591 21.8769L40.6966 22.9826C40.8659 23.1519 41.0879 23.2363 41.3098 23.2363C41.5317 23.2363 41.7537 23.1519 41.923 22.9826C42.2617 22.6439 42.2617 22.0948 41.923 21.7561L40.8174 20.6499L41.923 19.5437C42.2617 19.205 42.2617 18.656 41.923 18.3173C41.5843 17.9792 41.0359 17.9792 40.6972 18.3173L39.5915 19.4229L38.4859 18.3173C38.1472 17.9786 37.5987 17.9792 37.2601 18.3173C36.9214 18.656 36.9214 19.205 37.2601 19.5437L38.3645 20.6499Z" fill="#BE946F"/>
</svg>
