<svg width="37" height="37" viewBox="0 0 37 37" fill="none" xmlns="http://www.w3.org/2000/svg">
<g clip-path="url(#clip0)">
<path d="M33.7042 6.38911C28.6135 4.99424 23.4928 2.8223 18.8958 0.108158C18.6516 -0.0360119 18.3486 -0.0360119 18.1045 0.108158C13.3749 2.90028 8.53093 4.95472 3.29565 6.38911C2.95745 6.48169 2.72302 6.7891 2.72302 7.13981V15.0923C2.72302 23.2817 6.50099 28.7025 9.67041 31.8078C13.0825 35.1511 17.0571 37 18.5002 37C19.9431 37 23.9177 35.1511 27.3298 31.8078C30.4991 28.7025 34.2769 23.2817 34.2769 15.0923V7.13973C34.2769 6.7891 34.0424 6.48169 33.7042 6.38911ZM32.7203 15.0923C32.7203 22.7411 29.1965 27.7993 26.2403 30.6958C22.8849 33.9835 19.2975 35.4433 18.5002 35.4433C17.7029 35.4433 14.1152 33.9835 10.7597 30.6958C7.80357 27.7992 4.27969 22.7411 4.27969 15.0923V7.73058C9.2861 6.30911 13.9485 4.32536 18.5003 1.68022C22.9384 4.25519 27.8335 6.33759 32.7203 7.73029V15.0923Z" fill="#47DFB1"/>
<path d="M11.6014 7.64351C11.4438 7.24352 10.9919 7.04703 10.5919 7.20464C9.20149 7.75249 7.77439 8.25676 6.35026 8.7035C6.02571 8.8054 5.80487 9.10602 5.80487 9.4461V12.4517C5.80487 12.8815 6.15341 13.23 6.58317 13.23C7.01293 13.23 7.36147 12.8815 7.36147 12.4517V10.0149C8.63905 9.60154 9.91526 9.14432 11.1625 8.65284C11.5625 8.49538 11.759 8.0435 11.6014 7.64351Z" fill="#47DFB1"/>
<path d="M13.0798 7.79115C13.1842 7.79115 13.2903 7.77013 13.3919 7.72575L13.4062 7.71954C13.8 7.54697 13.9774 7.08859 13.8048 6.69496C13.6321 6.30119 13.1711 6.12305 12.7778 6.29548L12.7652 6.3009C12.3712 6.47296 12.1933 6.93098 12.3653 7.32483C12.493 7.61721 12.7796 7.79115 13.0798 7.79115Z" fill="#47DFB1"/>
<path d="M27.7732 25.0966C27.4136 24.8615 26.9313 24.9626 26.6959 25.3224C26.0545 26.3041 25.3021 27.2441 24.4592 28.1161C23.766 28.8332 23.0149 29.5015 22.2267 30.1024C21.885 30.363 21.8192 30.8513 22.0797 31.1932C22.233 31.394 22.4647 31.4997 22.6992 31.4997C22.8638 31.4997 23.0296 31.4477 23.1706 31.3402C24.0208 30.6919 24.8309 29.9712 25.5782 29.1981C26.4896 28.2555 27.304 27.238 27.9991 26.1739C28.2343 25.814 28.133 25.3317 27.7732 25.0966Z" fill="#47DFB1"/>
<path d="M20.4192 31.323L20.3745 31.3493C20.0025 31.5647 19.8754 32.0408 20.0908 32.4128C20.2351 32.6621 20.4963 32.8012 20.7651 32.8012C20.8973 32.8012 21.0316 32.7675 21.1542 32.6963L21.2058 32.666C21.5767 32.4488 21.7013 31.9721 21.4841 31.6011C21.2667 31.2303 20.7899 31.106 20.4192 31.323Z" fill="#47DFB1"/>
<path d="M13.1949 16.9115C12.717 16.4335 12.0814 16.1705 11.4054 16.1705C10.7295 16.1705 10.0938 16.4336 9.61571 16.9115C8.62907 17.8984 8.62907 19.5041 9.61571 20.4909L14.2115 25.0865C14.6895 25.5644 15.325 25.8275 16.0011 25.8275C16.6771 25.8275 17.3127 25.5644 17.7907 25.0864L27.3848 15.4923C28.3714 14.5052 28.3714 12.8997 27.3846 11.9132C26.9067 11.4352 26.2711 11.1722 25.595 11.1722C24.9189 11.1722 24.2834 11.4353 23.8053 11.9132L16.001 19.7175L13.1949 16.9115ZM24.9061 13.0139C25.09 12.83 25.3348 12.7288 25.5951 12.7288C25.8555 12.7288 26.1 12.83 26.2841 13.0139C26.6639 13.3937 26.6639 14.0119 26.284 14.3918L16.6901 23.9857C16.5062 24.1696 16.2614 24.2709 16.0011 24.2709C15.7408 24.2709 15.496 24.1696 15.312 23.9857L10.7164 19.3902C10.3365 19.0103 10.3365 18.3922 10.7162 18.0124C10.9002 17.8285 11.145 17.7271 11.4054 17.7271C11.6657 17.7271 11.9104 17.8283 12.0943 18.0123L15.4506 21.3687C15.5967 21.5146 15.7946 21.5966 16.001 21.5966C16.2075 21.5966 16.4053 21.5147 16.5512 21.3687L24.9061 13.0139Z" fill="#47DFB1"/>
</g>
<defs>
<clipPath id="clip0">
<rect width="37" height="37" fill="white"/>
</clipPath>
</defs>
</svg>
