<svg width="16" height="16" viewBox="0 0 16 16" fill="none" xmlns="http://www.w3.org/2000/svg">
<path fill-rule="evenodd" clip-rule="evenodd" d="M8.03349 15.8625H8.0302C6.69689 15.8621 5.38679 15.5291 4.22319 14.8975L0 16L1.1302 11.8916C0.433036 10.6892 0.066194 9.32527 0.0667918 7.92791C0.0685395 3.5565 3.64233 0 8.03342 0C10.1646 0.000915527 12.1648 0.826591 13.6689 2.32523C15.173 3.82379 16.0008 5.81574 16 7.93417C15.9982 12.3046 12.4259 15.8607 8.03349 15.8625ZM4.41893 13.4625L4.66072 13.6053C5.67735 14.2057 6.84271 14.5234 8.03089 14.5238H8.03357C11.6831 14.5238 14.6535 11.5676 14.655 7.93403C14.6556 6.17322 13.9676 4.5176 12.7174 3.272C11.4673 2.02639 9.80477 1.34009 8.03618 1.33948C4.3838 1.33948 1.41338 4.29539 1.41193 7.92869C1.41142 9.17385 1.76149 10.3865 2.42431 11.4357L2.58175 11.685L1.91283 14.1167L4.41893 13.4625ZM11.7747 9.64095C11.9135 9.70773 12.0073 9.75282 12.0473 9.81933C12.097 9.90192 12.097 10.2986 11.9313 10.7614C11.7653 11.2241 10.9701 11.6465 10.5876 11.7033C10.2447 11.7544 9.81068 11.7756 9.33385 11.6248C9.04473 11.5335 8.67398 11.4116 8.19907 11.2075C6.33294 10.4056 5.07183 8.60559 4.83348 8.26539C4.81679 8.24155 4.80511 8.22489 4.79859 8.21623L4.79699 8.21409C4.69164 8.07421 3.98579 7.13694 3.98579 6.16692C3.98579 5.2544 4.43619 4.77611 4.64351 4.55595C4.65772 4.54086 4.67078 4.52699 4.68248 4.51427C4.86493 4.31594 5.0806 4.26636 5.21329 4.26636C5.34598 4.26636 5.47883 4.26758 5.59481 4.27338C5.60912 4.27409 5.624 4.274 5.63939 4.27391C5.75539 4.27324 5.90001 4.27239 6.04267 4.61344C6.09756 4.7447 6.17788 4.93929 6.26259 5.14453C6.43387 5.55952 6.62311 6.01803 6.6564 6.08438C6.70618 6.18355 6.73934 6.29919 6.673 6.43146C6.66304 6.45129 6.65382 6.47001 6.64502 6.48789C6.59519 6.58915 6.55853 6.66363 6.47395 6.76192C6.44069 6.80056 6.40631 6.84223 6.37193 6.88389C6.30345 6.96689 6.23498 7.04988 6.17535 7.109C6.0757 7.20778 5.97196 7.31496 6.08808 7.51329C6.2042 7.71162 6.60369 8.36032 7.19545 8.88564C7.83156 9.45031 8.38443 9.68897 8.66466 9.80994C8.71939 9.83357 8.76372 9.8527 8.79624 9.8689C8.99522 9.9681 9.11134 9.9515 9.22746 9.81933C9.34359 9.68711 9.72507 9.24084 9.85775 9.04255C9.99043 8.84429 10.1232 8.87732 10.3056 8.9434C10.4881 9.00957 11.4668 9.48877 11.6658 9.58792C11.7047 9.60728 11.741 9.62475 11.7747 9.64095Z" fill="#BE946F"/>
</svg>
